<svg width="180" height="180" viewBox="0 0 180 180" fill="none" xmlns="http://www.w3.org/2000/svg">
<path d="M94.487 62.9136C94.1834 62.9155 93.8827 62.8561 93.6028 62.739C93.3229 62.6219 93.0698 62.4496 92.8586 62.2324L79.6367 49.0946C79.2071 48.6632 78.9661 48.0803 78.9661 47.4727C78.9661 46.8651 79.2071 46.2821 79.6367 45.8507L113.213 12.4062C115.394 10.2295 118.353 9.005 121.44 9.00196C124.528 8.99892 127.49 10.2176 129.675 12.39C131.86 14.5623 133.09 17.5103 133.093 20.5855C133.096 23.6607 131.872 26.6112 129.691 28.7878L96.1153 62.2324C95.903 62.4481 95.6496 62.6195 95.37 62.7364C95.0904 62.8534 94.7902 62.9136 94.487 62.9136ZM84.5542 47.4727L94.487 57.2043L126.402 25.4142C127.228 24.8247 127.915 24.0632 128.416 23.1827C128.916 22.3022 129.219 21.3237 129.302 20.3151C129.384 19.3065 129.246 18.2921 128.896 17.3421C128.546 16.3922 127.992 15.5295 127.274 14.8139C126.556 14.0984 125.69 13.5471 124.736 13.1984C123.782 12.8496 122.764 12.7118 121.751 12.7945C120.739 12.8771 119.756 13.1782 118.872 13.6769C117.988 14.1757 117.224 14.86 116.632 15.6825L84.5542 47.4727Z" fill="white"/>
<path d="M136.175 104.467C135.563 104.463 134.978 104.218 134.547 103.785L121.52 90.8098C121.091 90.3784 120.85 89.7954 120.85 89.1878C120.85 88.5802 121.091 87.9972 121.52 87.5659L154.933 53.9267C155.978 52.705 157.266 51.7128 158.715 51.0131C160.165 50.3133 161.745 49.9213 163.355 49.8619C164.965 49.8025 166.569 50.077 168.067 50.668C169.565 51.259 170.923 52.1535 172.055 53.2949C173.187 54.4363 174.069 55.7996 174.645 57.2984C175.22 58.7972 175.476 60.3987 175.398 62.0014C175.319 63.6041 174.906 65.173 174.187 66.6086C173.467 68.0442 172.456 69.3151 171.217 70.3408L137.836 103.785C137.389 104.214 136.796 104.458 136.175 104.467ZM126.405 88.9932L136.175 98.887L168.123 67.0645C168.949 66.4749 169.636 65.7135 170.136 64.833C170.637 63.9525 170.939 62.974 171.022 61.9654C171.105 60.9568 170.967 59.9424 170.617 58.9924C170.267 58.0424 169.713 57.1797 168.995 56.4642C168.276 55.7486 167.41 55.1974 166.457 54.8486C165.503 54.4999 164.485 54.3621 163.472 54.4447C162.459 54.5274 161.477 54.8285 160.593 55.3272C159.709 55.8259 158.945 56.5103 158.353 57.3328L126.405 88.9932Z" fill="white"/>
<path d="M44.4646 129.705C43.9009 129.699 43.3587 129.489 42.9399 129.113C42.5212 128.737 42.2548 128.221 42.1907 127.663C42.1267 127.105 42.2695 126.543 42.5923 126.083C42.9151 125.623 43.3957 125.296 43.9436 125.163L71.853 118.676L60.7478 107.646C60.4593 107.356 60.2535 106.994 60.1517 106.598C60.0498 106.202 60.0555 105.787 60.1683 105.394C60.281 105.001 60.4966 104.645 60.793 104.362C61.0895 104.08 61.456 103.881 61.8551 103.786L94.6821 95.6116C94.9751 95.5339 95.2808 95.5152 95.5811 95.5566C95.8815 95.598 96.1705 95.6987 96.4313 95.8528C96.6922 96.0068 96.9195 96.2112 97.1 96.4538C97.2806 96.6965 97.4107 96.9726 97.4828 97.266C97.631 97.8637 97.5362 98.4956 97.2191 99.0242C96.9019 99.5527 96.3881 99.9351 95.7894 100.088L66.9355 107.257L78.0732 118.384C78.3618 118.674 78.5675 119.036 78.6694 119.432C78.7712 119.828 78.7655 120.243 78.6528 120.636C78.5401 121.029 78.3245 121.385 78.028 121.668C77.7316 121.95 77.365 122.149 76.9659 122.244L44.9857 129.672L44.4646 129.705Z" fill="white"/>
<path d="M135.329 121.886C135.026 121.888 134.725 121.828 134.445 121.711C134.165 121.594 133.912 121.422 133.701 121.205L88.4008 76.1147C88.0312 75.6732 87.8407 75.1099 87.8667 74.5356C87.8928 73.9613 88.1335 73.4175 88.5416 73.011C88.9497 72.6045 89.4957 72.3647 90.0722 72.3388C90.6488 72.3128 91.2142 72.5026 91.6575 72.8708L136.925 117.993C137.246 118.315 137.464 118.725 137.552 119.17C137.64 119.615 137.594 120.076 137.42 120.495C137.246 120.914 136.952 121.273 136.574 121.526C136.196 121.779 135.752 121.916 135.297 121.918L135.329 121.886Z" fill="white"/>
<path d="M80.2912 67.0661C79.6694 67.0642 79.0732 66.8196 78.6303 66.3849L62.1517 49.9384C61.782 49.4969 61.5915 48.9337 61.6176 48.3594C61.6436 47.7851 61.8844 47.2412 62.2925 46.8347C62.7006 46.4282 63.2465 46.1885 63.8231 46.1625C64.3996 46.1366 64.9651 46.3263 65.4083 46.6945L81.9195 63.1086C82.3491 63.54 82.5901 64.123 82.5901 64.7305C82.5901 65.3381 82.3491 65.9211 81.9195 66.3525C81.71 66.5741 81.4579 66.7515 81.1781 66.8741C80.8984 66.9967 80.5968 67.062 80.2912 67.0661Z" fill="white"/>
<path d="M35.5127 171C34.3574 171.002 33.2131 170.777 32.1456 170.337C31.0781 169.897 30.1084 169.252 29.2925 168.437L14.7353 153.807C13.918 152.994 13.2696 152.028 12.8273 150.965C12.3849 149.902 12.1572 148.762 12.1572 147.611C12.1572 146.461 12.3849 145.321 12.8273 144.258C13.2696 143.195 13.918 142.229 14.7353 141.415L24.5052 131.684C20.2866 121.749 19.155 110.783 21.2564 100.201C23.3579 89.6187 28.596 79.9073 36.2943 72.3206L68.1443 40.5953C68.7519 39.9674 69.4803 39.468 70.286 39.1268C71.0918 38.7857 71.9583 38.6099 72.8338 38.6099C73.7094 38.6099 74.5759 38.7857 75.3816 39.1268C76.1874 39.468 76.9158 39.9674 77.5234 40.5953L142.982 105.765C143.612 106.37 144.114 107.096 144.456 107.898C144.799 108.701 144.975 109.564 144.975 110.436C144.975 111.308 144.799 112.172 144.456 112.974C144.114 113.777 143.612 114.502 142.982 115.108L110.416 147.546C102.897 155.054 93.2718 160.117 82.8078 162.068C72.3438 164.019 61.5318 162.768 51.7959 158.478L42.026 168.21C41.1954 169.101 40.187 169.81 39.0653 170.291C37.9437 170.771 36.7336 171.013 35.5127 171ZM72.9641 43.2553C72.6953 43.2524 72.4288 43.3058 72.182 43.412C71.9352 43.5182 71.7134 43.6748 71.5312 43.8716L39.6812 75.5969C32.4618 82.7109 27.612 91.8633 25.7888 101.814C23.9655 111.765 25.2568 122.034 29.4879 131.23C29.6901 131.662 29.7549 132.145 29.6734 132.615C29.5919 133.084 29.368 133.518 29.0319 133.857L17.9919 144.692C17.6068 145.075 17.3019 145.53 17.0951 146.031C16.8882 146.532 16.7835 147.069 16.787 147.611C16.782 148.715 17.2151 149.776 17.9919 150.563L32.6794 165.193C33.4823 165.944 34.542 166.361 35.6429 166.361C36.7439 166.361 37.8036 165.944 38.6065 165.193L47.7251 156.078C47.5541 155.636 47.5217 155.154 47.6323 154.694C47.7428 154.233 47.991 153.818 48.3441 153.501C48.6972 153.185 49.1384 152.982 49.6094 152.921C50.0804 152.86 50.559 152.943 50.9817 153.158C60.0574 157.855 70.4017 159.541 80.5068 157.971C90.6119 156.401 99.9496 151.658 107.159 144.432L139.725 111.864C140.099 111.482 140.309 110.97 140.309 110.436C140.309 109.903 140.099 109.391 139.725 109.009L74.397 43.8392C74.2085 43.6527 73.9849 43.5052 73.739 43.405C73.4931 43.3048 73.2298 43.2539 72.9641 43.2553Z" fill="white"/>
<path d="M161.869 170.998H8.51339C7.90015 170.998 7.31203 170.756 6.87841 170.324C6.44478 169.892 6.20117 169.306 6.20117 168.695C6.20117 168.084 6.44478 167.499 6.87841 167.067C7.31203 166.635 7.90015 166.392 8.51339 166.392H161.869C162.482 166.392 163.07 166.635 163.504 167.067C163.937 167.499 164.181 168.084 164.181 168.695C164.181 169.306 163.937 169.892 163.504 170.324C163.07 170.756 162.482 170.998 161.869 170.998Z" fill="white"/>
<path d="M49.8723 157.538C49.569 157.538 49.2688 157.478 48.9892 157.361C48.7096 157.244 48.4562 157.073 48.244 156.857L36.7806 145.439C36.5339 145.234 36.3327 144.98 36.19 144.693C36.0473 144.407 35.9661 144.093 35.9516 143.774C35.9371 143.454 35.9896 143.135 36.1058 142.837C36.222 142.538 36.3993 142.268 36.6265 142.041C36.8536 141.815 37.1256 141.638 37.425 141.523C37.7245 141.407 38.0449 141.355 38.3658 141.369C38.6867 141.383 39.0011 141.464 39.2888 141.607C39.5766 141.749 39.8315 141.949 40.0372 142.195L51.468 153.581C51.8976 154.012 52.1386 154.595 52.1386 155.203C52.1386 155.81 51.8976 156.393 51.468 156.825C51.2623 157.042 51.0155 157.218 50.7416 157.34C50.4678 157.463 50.1723 157.53 49.8723 157.538Z" fill="white"/>
</svg>
