<svg width="18" height="19" viewBox="0 0 18 19" fill="none" xmlns="http://www.w3.org/2000/svg">
<path d="M14.625 2.75H3.375C2.75368 2.75 2.25 3.25368 2.25 3.875V15.125C2.25 15.7463 2.75368 16.25 3.375 16.25H14.625C15.2463 16.25 15.75 15.7463 15.75 15.125V3.875C15.75 3.25368 15.2463 2.75 14.625 2.75Z" fill="#001F60"/>
<path fill-rule="evenodd" clip-rule="evenodd" d="M4.375 6.875C4.375 6.59886 4.59886 6.375 4.875 6.375H7.875C8.15114 6.375 8.375 6.59886 8.375 6.875C8.375 7.15114 8.15114 7.375 7.875 7.375H5.375V9H7.6875C7.96364 9 8.1875 9.22386 8.1875 9.5C8.1875 9.77614 7.96364 10 7.6875 10H5.375V11.625H7.6875C7.96364 11.625 8.1875 11.8489 8.1875 12.125C8.1875 12.4011 7.96364 12.625 7.6875 12.625H4.875C4.59886 12.625 4.375 12.4011 4.375 12.125V6.875ZM9.75 7.125C10.0261 7.125 10.25 7.34886 10.25 7.625V7.85037C10.6011 7.62341 11.013 7.5 11.4375 7.5C12.0177 7.5 12.5741 7.73047 12.9843 8.1407C13.3945 8.55094 13.625 9.10734 13.625 9.6875V12.125C13.625 12.4011 13.4011 12.625 13.125 12.625C12.8489 12.625 12.625 12.4011 12.625 12.125V9.6875C12.625 9.37256 12.4999 9.07051 12.2772 8.84781C12.0545 8.62511 11.7524 8.5 11.4375 8.5C11.1226 8.5 10.8205 8.62511 10.5978 8.84781C10.3751 9.07051 10.25 9.37256 10.25 9.6875V12.125C10.25 12.4011 10.0261 12.625 9.75 12.625C9.47386 12.625 9.25 12.4011 9.25 12.125V7.625C9.25 7.34886 9.47386 7.125 9.75 7.125Z" fill="white"/>
</svg>
