<svg width="12" height="17" viewBox="0 0 12 17" fill="none" xmlns="http://www.w3.org/2000/svg">
<path d="M2.02558 0.851052L2.94785 0.575849C3.81356 0.318246 4.73669 0.735051 5.10783 1.54946L5.84411 3.17188C6.16468 3.87829 5.98725 4.7095 5.40354 5.2263L3.78013 6.66472C3.87956 7.52553 4.18984 8.37274 4.70926 9.20635C5.20279 10.0129 5.86471 10.7189 6.65582 11.2824L8.6058 10.6744C9.3455 10.4448 10.1504 10.7096 10.6029 11.3312L11.6598 12.7792C12.1869 13.5024 12.0926 14.4992 11.4386 15.112L10.7375 15.7688C10.0398 16.4224 9.04294 16.66 8.12152 16.3912C5.94525 15.7576 3.9447 13.8768 2.119 10.7488C0.290736 7.61593 -0.354686 4.9567 0.183594 2.77427C0.409878 1.85586 1.11016 1.12386 2.02558 0.851052Z" fill="#001F60"/>
</svg>
