<svg width="32" height="32" viewBox="0 0 32 32" fill="none" xmlns="http://www.w3.org/2000/svg">
<path d="M15.8751 19.5C16.8033 19.5 17.6936 19.1313 18.3499 18.4749C19.0063 17.8185 19.3751 16.9283 19.3751 16C19.3751 15.8975 19.3704 15.7959 19.3616 15.6956L15.5707 19.4866C15.671 19.4953 15.7722 19.5 15.8751 19.5ZM27.4601 5.17376L26.1251 3.84001C26.0782 3.79316 26.0146 3.76685 25.9483 3.76685C25.8821 3.76685 25.8185 3.79316 25.7716 3.84001L22.3554 7.2572C20.4708 6.29407 18.3524 5.81251 16.0001 5.81251C9.99381 5.81251 5.51256 8.94064 2.55631 15.1969C2.43748 15.4485 2.37585 15.7233 2.37585 16.0016C2.37585 16.2798 2.43748 16.5546 2.55631 16.8063C3.73756 19.2944 5.15995 21.2887 6.8235 22.7891L3.51756 26.0938C3.47071 26.1406 3.44439 26.2042 3.44439 26.2705C3.44439 26.3368 3.47071 26.4003 3.51756 26.4472L4.85162 27.7813C4.8985 27.8281 4.96206 27.8544 5.02834 27.8544C5.09462 27.8544 5.15818 27.8281 5.20506 27.7813L27.4601 5.52751C27.4833 5.50429 27.5017 5.47672 27.5143 5.44637C27.5269 5.41602 27.5334 5.38349 27.5334 5.35064C27.5334 5.31778 27.5269 5.28525 27.5143 5.2549C27.5017 5.22455 27.4833 5.19698 27.4601 5.17376ZM10.3751 16C10.375 15.05 10.6209 14.1162 11.089 13.2896C11.5571 12.4629 12.2313 11.7716 13.046 11.2829C13.8606 10.7943 14.788 10.525 15.7377 10.5012C16.6874 10.4775 17.627 10.7002 18.4651 11.1475L16.9457 12.6669C16.3329 12.4707 15.678 12.4471 15.0527 12.5986C14.4274 12.7501 13.8559 13.071 13.401 13.5259C12.946 13.9809 12.6252 14.5523 12.4736 15.1776C12.3221 15.8029 12.3457 16.4579 12.5419 17.0706L11.0226 18.59C10.5962 17.7934 10.3737 16.9036 10.3751 16Z" fill="#BDBDBD"/>
<path d="M29.4437 15.1937C28.3437 12.8771 27.0344 10.988 25.5159 9.52655L21.0115 14.0312C21.3912 15.0238 21.4754 16.105 21.2538 17.1444C21.0323 18.1837 20.5145 19.1367 19.7631 19.8881C19.0116 20.6396 18.0587 21.1573 17.0193 21.3789C15.98 21.6004 14.8987 21.5162 13.9062 21.1365L10.0856 24.9572C11.8581 25.7774 13.8295 26.1875 15.9999 26.1875C22.0062 26.1875 26.4874 23.0594 29.4437 16.8031C29.5625 16.5515 29.6242 16.2767 29.6242 15.9984C29.6242 15.7202 29.5625 15.4453 29.4437 15.1937Z" fill="#BDBDBD"/>
</svg>
