<svg width="18" height="19" viewBox="0 0 18 19" fill="none" xmlns="http://www.w3.org/2000/svg">
<path d="M9 16.25C8.0527 15.442 7.17465 14.5561 6.375 13.6018C5.175 12.1685 3.75 10.034 3.75 8.00001C3.74948 6.96123 4.05713 5.94564 4.63402 5.08178C5.21091 4.21791 6.0311 3.5446 6.9908 3.14706C7.9505 2.74951 9.00656 2.6456 10.0253 2.84848C11.0441 3.05135 11.9798 3.5519 12.714 4.28676C13.2028 4.7734 13.5903 5.35216 13.8539 5.98954C14.1176 6.62692 14.2522 7.31026 14.25 8.00001C14.25 10.034 12.825 12.1685 11.625 13.6018C10.8254 14.5561 9.94729 15.442 9 16.25ZM9 5.75001C8.40326 5.75001 7.83097 5.98706 7.40901 6.40902C6.98705 6.83097 6.75 7.40327 6.75 8.00001C6.75 8.59675 6.98705 9.16904 7.40901 9.591C7.83097 10.013 8.40326 10.25 9 10.25C9.59674 10.25 10.169 10.013 10.591 9.591C11.0129 9.16904 11.25 8.59675 11.25 8.00001C11.25 7.40327 11.0129 6.83097 10.591 6.40902C10.169 5.98706 9.59674 5.75001 9 5.75001Z" fill="#001F60"/>
</svg>
