<svg width="120" height="134" viewBox="0 0 120 134" fill="none" xmlns="http://www.w3.org/2000/svg">
<path d="M53.7484 120.164C38.9069 120.164 25.4692 114.178 15.7428 104.502C6.01574 94.8251 0 81.4576 0 66.6926C0 51.9277 6.01653 38.5594 15.7428 28.8833C25.47 19.2064 38.9069 13.2217 53.7484 13.2217V24.249C41.9662 24.249 31.3001 28.9998 23.5793 36.68C15.8585 44.361 11.0838 54.9721 11.0838 66.6934C11.0838 78.4148 15.8592 89.0259 23.5793 96.7068C31.3001 104.388 41.9662 109.138 53.7484 109.138V120.165V120.164Z" fill="#333333"/>
<path d="M52.9609 122.358C68.4128 122.358 82.4018 116.127 92.5269 106.055C101.504 97.1242 107.444 85.172 108.676 71.8632H80.8037V60.8358H108.609C107.239 47.8024 101.35 36.1076 92.5276 27.3305C82.4026 17.2577 68.4136 11.0273 52.9617 11.0273V0C71.473 0 88.2327 7.46501 100.365 19.5337C112.496 31.6025 120 48.2757 120 66.6922C120 85.1079 112.496 101.782 100.365 113.851C88.2327 125.919 71.473 133.384 52.9617 133.384V122.357L52.9609 122.358Z" fill="#141414"/>
<path fill-rule="evenodd" clip-rule="evenodd" d="M52.5924 35.1152C55.9687 42.3126 55.7894 50.3417 65.1319 61.9903C67.345 64.7217 73.0383 71.3801 72.675 80.5781C72.3092 89.8411 64.6592 98.7966 53.3843 98.7966C42.1094 98.7966 31.6824 92.0115 31.6824 79.1518C31.6824 65.7068 46.483 58.0516 49.0689 48.3622C51.2813 40.0725 50.7803 36.867 50.6443 35.0401C50.4948 33.0332 51.7225 33.2609 52.5924 35.1152Z" fill="#141414"/>
<path d="M52.101 80.2753C52.101 80.1743 52.0569 80.0828 51.9861 80.0163C51.9122 79.9466 51.8084 79.9036 51.6928 79.9036C51.578 79.9036 51.4741 79.9466 51.4002 80.0163C51.3294 80.0828 51.2854 80.1743 51.2854 80.2753C51.2854 80.5358 51.3979 80.7721 51.5803 80.9434C51.7651 81.1179 52.0231 81.2259 52.3086 81.2259C52.5941 81.2259 52.8513 81.1179 53.0361 80.9442C53.2178 80.7729 53.331 80.5358 53.331 80.2753C53.331 79.8551 53.1493 79.4741 52.856 79.1979C52.5595 78.9185 52.1481 78.7464 51.6936 78.7464C51.2382 78.7464 50.8269 78.9185 50.5312 79.1971C50.2378 79.4733 50.0561 79.8543 50.0561 80.2753C50.0561 80.8558 50.3062 81.3816 50.7113 81.7618C51.1194 82.1452 51.6841 82.3831 52.3094 82.3831C52.9346 82.3831 53.4993 82.1452 53.9067 81.7618C54.311 81.3816 54.5611 80.8558 54.5611 80.2753C54.5611 79.5351 54.2417 78.8646 53.7258 78.3795C53.2067 77.8912 52.4879 77.5892 51.6928 77.5892C50.8984 77.5892 50.1788 77.8912 49.6597 78.3795C49.1438 78.8646 48.8245 79.5351 48.8245 80.2745C48.8245 81.1742 49.213 81.9895 49.8398 82.5787C50.4706 83.1717 51.3436 83.5387 52.3078 83.5387C53.272 83.5387 54.145 83.1717 54.7758 82.5787C55.4026 81.9887 55.7911 81.1735 55.7911 80.2745C55.7911 79.2151 55.3342 78.2558 54.5957 77.5611C53.8532 76.8631 52.8269 76.4313 51.6928 76.4313C50.5587 76.4313 49.5316 76.8631 48.7899 77.5611C48.0514 78.2558 47.5945 79.2151 47.5945 80.2745C47.5945 81.4935 48.1206 82.5982 48.97 83.3979C49.8233 84.2006 51.0038 84.6967 52.3078 84.6967C53.6118 84.6967 54.7923 84.1998 55.6456 83.3979C56.495 82.5982 57.0211 81.4943 57.0211 80.2745C57.0211 78.8951 56.4266 77.6463 55.4655 76.7427C54.5013 75.8351 53.1666 75.2741 51.6928 75.2741C50.2189 75.2741 48.8843 75.8351 47.9201 76.7427C46.959 77.6463 46.3644 78.8959 46.3644 80.2745C46.3644 81.8135 47.0282 83.207 48.101 84.2155C49.1769 85.2272 50.6649 85.8539 52.3086 85.8539C53.9523 85.8539 55.4403 85.2279 56.5162 84.2155C57.589 83.207 58.252 81.8127 58.252 80.2745C58.252 78.5759 57.5198 77.0376 56.3353 75.9243C55.1478 74.8077 53.5064 74.1169 51.6928 74.1169C49.8792 74.1169 48.237 74.8077 47.0502 75.9243C45.8666 77.0376 45.1336 78.5759 45.1336 80.2745C45.1336 82.1327 45.935 83.8157 47.2303 85.0339C48.5288 86.2552 50.3243 87.0111 52.3086 87.0111C54.2921 87.0111 56.0876 86.2552 57.3869 85.0339C58.6822 83.8157 59.4836 82.1327 59.4836 80.2745C59.4836 78.2566 58.6138 76.4289 57.2068 75.1058C55.7966 73.7797 53.8477 72.9597 51.6936 72.9597C49.5394 72.9597 47.5905 73.7797 46.1804 75.1058C44.7734 76.4289 43.9035 78.2558 43.9035 80.2745C43.9035 82.4527 44.8426 84.4244 46.3605 85.8523C47.8815 87.2826 49.9853 88.1682 52.3086 88.1682C54.6318 88.1682 56.7349 87.2833 58.2567 85.8523C59.7746 84.4252 60.7136 82.4527 60.7136 80.2745C60.7136 77.9366 59.7054 75.8202 58.0766 74.2882C56.4439 72.7523 54.1867 71.8025 51.6936 71.8025C49.1997 71.8025 46.9433 72.7523 45.3105 74.2874C43.6818 75.8202 42.6735 77.9366 42.6735 80.2745C42.6735 82.7719 43.7502 85.0331 45.4906 86.6707C47.235 88.3106 49.6456 89.3254 52.3086 89.3254C54.9716 89.3254 57.3821 88.3106 59.1265 86.6707C60.867 85.0339 61.9437 82.7719 61.9437 80.2745C61.9437 77.6174 60.7978 75.2115 58.9464 73.4698C57.0911 71.725 54.5264 70.6453 51.6936 70.6453C48.8607 70.6453 46.296 71.725 44.4407 73.4698C42.5886 75.2115 41.4435 77.6174 41.4435 80.2745C41.4435 83.0919 42.6578 85.6426 44.6216 87.4891C46.5886 89.3387 49.3066 90.4826 52.3102 90.4826C55.3137 90.4826 58.0318 89.3387 59.9979 87.4883C61.961 85.6418 63.1753 83.0912 63.1753 80.2745C63.1753 77.2974 61.8918 74.602 59.8178 72.6514C57.74 70.6969 54.8678 69.4881 51.6951 69.4881C48.5217 69.4881 45.6495 70.6969 43.5724 72.6514C41.4977 74.6028 40.215 77.2982 40.215 80.2745C40.215 83.4112 41.5669 86.2513 43.7525 88.3067C45.9421 90.3653 48.9677 91.639 52.311 91.639C55.6535 91.639 58.6798 90.3653 60.8686 88.3067C63.0542 86.2513 64.4061 83.4104 64.4061 80.2745H64.8222C64.8222 83.5293 63.4199 86.4751 61.1525 88.6072C58.889 90.7361 55.762 92.0529 52.3102 92.0529C48.8575 92.0529 45.7313 90.7361 43.4671 88.6072C41.2004 86.4751 39.7974 83.5285 39.7974 80.2745C39.7974 77.18 41.1312 74.3782 43.2869 72.351C45.4395 70.3269 48.4124 69.0742 51.6944 69.0742C54.9771 69.0742 57.9492 70.3261 60.1018 72.351C62.2575 74.3782 63.5913 77.18 63.5913 80.2745C63.5913 83.2093 62.3267 85.8664 60.2819 87.7888C58.241 89.708 55.4215 90.8957 52.3094 90.8957C49.1973 90.8957 46.3778 89.708 44.3369 87.7888C42.2921 85.8656 41.0274 83.2085 41.0274 80.2737C41.0274 77.4985 42.2236 74.9861 44.1568 73.1686C46.0868 71.3542 48.7522 70.2306 51.6944 70.2306C54.6366 70.2306 57.3019 71.3534 59.2319 73.1686C61.1651 74.9869 62.3605 77.4992 62.3605 80.2737C62.3605 82.8893 61.2335 85.2569 59.412 86.9704C57.5937 88.6807 55.0825 89.7385 52.3102 89.7385C49.5371 89.7385 47.0258 88.6807 45.2075 86.9704C43.386 85.2569 42.259 82.8893 42.259 80.2737C42.259 77.8185 43.3176 75.5956 45.0274 73.9862C46.7349 72.3807 49.0919 71.3878 51.6951 71.3878C54.2976 71.3878 56.6554 72.3807 58.3629 73.9862C60.0734 75.5949 61.1313 77.8177 61.1313 80.2729C61.1313 82.5685 60.1419 84.6474 58.543 86.1512C56.9472 87.6519 54.7435 88.5806 52.311 88.5806C49.8776 88.5806 47.6739 87.6519 46.0781 86.1512C44.4792 84.6474 43.4899 82.5685 43.4899 80.2729C43.4899 78.1369 44.4108 76.2036 45.898 74.8038C47.3821 73.408 49.4325 72.5442 51.6951 72.5442C53.9586 72.5442 56.0082 73.408 57.4922 74.8038C58.9802 76.2036 59.9004 78.1369 59.9004 80.2729C59.9004 82.2493 59.0487 84.0379 57.6723 85.3328C56.2992 86.6245 54.403 87.4234 52.3102 87.4234C50.2174 87.4234 48.3204 86.6245 46.9472 85.3328C45.5709 84.0387 44.7191 82.2493 44.7191 80.2729C44.7191 78.4561 45.5017 76.8123 46.7671 75.6222C48.0286 74.4353 49.7714 73.7014 51.6944 73.7014C53.6173 73.7014 55.3593 74.4353 56.6216 75.6222C57.8871 76.8123 58.6696 78.4561 58.6696 80.2729C58.6696 81.9293 57.9555 83.4292 56.8017 84.5144C55.6511 85.5965 54.0632 86.2654 52.3094 86.2654C50.5563 86.2654 48.9676 85.5957 47.817 84.5144C46.6633 83.4292 45.9492 81.9293 45.9492 80.2729C45.9492 78.7761 46.5941 77.421 47.6369 76.4406C48.6759 75.4634 50.1104 74.8586 51.6944 74.8586C53.2775 74.8586 54.7128 75.4634 55.7518 76.4406C56.7939 77.421 57.4395 78.7761 57.4395 80.2729C57.4395 81.6101 56.8631 82.8204 55.9327 83.6967C55.0046 84.5691 53.7235 85.109 52.3102 85.109C50.8961 85.109 49.6149 84.5691 48.6877 83.6967C47.7565 82.8212 47.18 81.6101 47.18 80.2729C47.18 79.0962 47.6873 78.0297 48.5068 77.259C49.3231 76.4915 50.4502 76.0158 51.6944 76.0158C52.9378 76.0158 54.0656 76.4907 54.8819 77.259C55.7014 78.0305 56.2087 79.0962 56.2087 80.2729C56.2087 81.29 55.7699 82.2117 55.062 82.8776C54.3574 83.5403 53.3837 83.951 52.3102 83.951C51.2358 83.951 50.2622 83.5403 49.5575 82.8776C48.8489 82.2117 48.4108 81.29 48.4108 80.2729C48.4108 79.4154 48.7805 78.6384 49.3774 78.0775C49.9712 77.5188 50.7907 77.1738 51.6951 77.1738C52.5996 77.1738 53.4183 77.5196 54.0121 78.0775C54.609 78.6392 54.9787 79.4154 54.9787 80.2737C54.9787 80.9708 54.6782 81.603 54.1922 82.0599C53.7101 82.5145 53.0439 82.7954 52.3102 82.7954C51.5756 82.7954 50.9102 82.5145 50.4273 82.0607C49.9413 81.6038 49.6409 80.9716 49.6409 80.2737C49.6409 79.7354 49.8729 79.2487 50.2472 78.8959C50.6192 78.5469 51.1312 78.331 51.6944 78.331C52.2583 78.331 52.7703 78.5469 53.1415 78.8959C53.5158 79.2479 53.7478 79.7354 53.7478 80.2737C53.7478 80.6524 53.585 80.9951 53.3216 81.2423C53.0612 81.4864 52.7034 81.6382 52.3094 81.6382C51.9154 81.6382 51.5567 81.4864 51.2972 81.2423C51.0337 80.9951 50.8709 80.6524 50.8709 80.2737C50.8709 80.0554 50.9653 79.8574 51.1171 79.7143C51.2657 79.575 51.4694 79.4881 51.6944 79.4881C51.9185 79.4881 52.1238 79.575 52.2716 79.7143C52.4234 79.8574 52.5178 80.0546 52.5178 80.2737H52.1017L52.101 80.2753Z" fill="#333333"/>
</svg>
