<svg width="12" height="10" viewBox="0 0 12 10" fill="none" xmlns="http://www.w3.org/2000/svg">
<path d="M6.49369 1.25791C6.43864 1.17796 6.36498 1.11259 6.27905 1.06743C6.19313 1.02227 6.09752 0.998675 6.00045 0.998675C5.90338 0.998675 5.80776 1.02227 5.72184 1.06743C5.63591 1.11259 5.56226 1.17796 5.50721 1.25791L0.106785 9.05853C0.0442753 9.1485 0.00761795 9.25388 0.000796318 9.36323C-0.00602531 9.47257 0.0172482 9.58169 0.0680904 9.67874C0.118933 9.77578 0.195397 9.85704 0.289178 9.91368C0.382958 9.97032 0.490467 10.0002 0.600024 10H11.4009C11.5102 9.99955 11.6173 9.96931 11.7107 9.91253C11.8041 9.85576 11.8802 9.7746 11.931 9.67778C11.9817 9.58096 12.0051 9.47214 11.9986 9.36303C11.9921 9.25392 11.956 9.14865 11.8941 9.05853L6.49369 1.25791Z" fill="#29D8FF"/>
</svg>
