<svg width="14" height="28" viewBox="0 0 14 28" fill="none" xmlns="http://www.w3.org/2000/svg">
<g clip-path="url(#clip0_1743_203)">
<path d="M2.3632 4.43893L3.4392 4.09493C4.4492 3.77293 5.5262 4.29393 5.9592 5.31193L6.8182 7.33993C7.1922 8.22293 6.9852 9.26193 6.3042 9.90793L4.4102 11.7059C4.5262 12.7819 4.8882 13.8409 5.4942 14.8829C6.06998 15.8911 6.84222 16.7736 7.7652 17.4779L10.0402 16.7179C10.9032 16.4309 11.8422 16.7619 12.3702 17.5389L13.6032 19.3489C14.2182 20.2529 14.1082 21.4989 13.3452 22.2649L12.5272 23.0859C11.7132 23.9029 10.5502 24.1999 9.47519 23.8639C6.93619 23.0719 4.6022 20.7209 2.4722 16.8109C0.339196 12.8949 -0.413804 9.57093 0.214196 6.84293C0.478196 5.69493 1.2952 4.77993 2.3632 4.43893Z" fill="#29D8FF"/>
</g>
<defs>
<clipPath id="clip0_1743_203">
<rect width="14.0001" height="28" fill="white"/>
</clipPath>
</defs>
</svg>
