<svg width="25" height="28" viewBox="0 0 25 28" fill="none" xmlns="http://www.w3.org/2000/svg">
<path d="M12.0442 6C7.62619 6 4.04419 9.582 4.04419 14C4.04419 18.418 7.62619 22 12.0442 22C16.4622 22 20.0442 18.418 20.0442 14C20.0442 9.582 16.4622 6 12.0442 6ZM15.9735 11.4807L14.6602 17.6673C14.5635 18.106 14.3022 18.2127 13.9375 18.006L11.9375 16.5327L10.9735 17.462C10.9263 17.5231 10.8657 17.5727 10.7963 17.6068C10.727 17.6408 10.6508 17.6586 10.5735 17.6587H10.5702L10.7122 15.6227L14.4189 12.2747C14.5789 12.1327 14.3829 12.052 14.1702 12.194L9.59086 15.078L7.61752 14.462C7.19086 14.3267 7.17886 14.0353 7.70752 13.826L15.4182 10.854C15.7769 10.7233 16.0889 10.9393 15.9729 11.4813L15.9735 11.4807Z" fill="#29D8FF"/>
</svg>
