<svg width="23" height="28" viewBox="0 0 23 28" fill="none" xmlns="http://www.w3.org/2000/svg">
<path d="M18.9661 10.7225C18.9572 10.0507 18.8314 9.38554 18.5945 8.75685C18.389 8.22655 18.0752 7.74494 17.673 7.34279C17.2709 6.94065 16.7893 6.62681 16.259 6.42133C15.6383 6.18836 14.9827 6.06239 14.3199 6.04879C13.4666 6.01064 13.1961 6 11.03 6C8.8639 6 8.58627 6 7.73917 6.04879C7.07671 6.06249 6.42137 6.18846 5.80104 6.42133C5.27065 6.62667 4.78897 6.94045 4.38681 7.34262C3.98464 7.74478 3.67086 8.22646 3.46552 8.75685C3.23209 9.37699 3.10639 10.0325 3.09386 10.695C3.05572 11.5492 3.04419 11.8197 3.04419 13.9858C3.04419 16.1519 3.04419 16.4287 3.09386 17.2766C3.10717 17.9401 3.23224 18.5947 3.46552 19.2165C3.6712 19.7468 3.98522 20.2283 4.38752 20.6302C4.78982 21.0322 5.27154 21.3459 5.80192 21.5512C6.42056 21.7935 7.07601 21.9285 7.74006 21.9503C8.59425 21.9885 8.86479 22 11.0309 22C13.197 22 13.4746 22 14.3217 21.9503C14.9845 21.9373 15.6401 21.8116 16.2607 21.5787C16.7909 21.373 17.2724 21.059 17.6745 20.6569C18.0766 20.2548 18.3905 19.7733 18.5962 19.2432C18.8295 18.6222 18.9546 17.9676 18.9679 17.3033C19.006 16.4499 19.0176 16.1794 19.0176 14.0124C19.0158 11.8463 19.0158 11.5714 18.9661 10.7225ZM11.0247 18.0821C8.75924 18.0821 6.924 16.2468 6.924 13.9814C6.924 11.7159 8.75924 9.8807 11.0247 9.8807C12.1122 9.8807 13.1553 10.3127 13.9243 11.0818C14.6933 11.8508 15.1254 12.8938 15.1254 13.9814C15.1254 15.0689 14.6933 16.112 13.9243 16.881C13.1553 17.65 12.1122 18.0821 11.0247 18.0821ZM15.2886 10.6852C15.163 10.6853 15.0386 10.6607 14.9225 10.6127C14.8064 10.5647 14.701 10.4942 14.6122 10.4054C14.5234 10.3166 14.4529 10.2111 14.4049 10.0951C14.3569 9.97901 14.3322 9.85462 14.3324 9.72902C14.3324 9.6035 14.3571 9.47922 14.4051 9.36326C14.4531 9.24731 14.5235 9.14194 14.6123 9.05319C14.701 8.96444 14.8064 8.89404 14.9224 8.84601C15.0383 8.79798 15.1626 8.77326 15.2881 8.77326C15.4136 8.77326 15.5379 8.79798 15.6539 8.84601C15.7698 8.89404 15.8752 8.96444 15.9639 9.05319C16.0527 9.14194 16.1231 9.24731 16.1711 9.36326C16.2192 9.47922 16.2439 9.6035 16.2439 9.72902C16.2439 10.2577 15.8163 10.6852 15.2886 10.6852Z" fill="#29D8FF"/>
<path d="M11.0247 16.6451C12.4958 16.6451 13.6884 15.4525 13.6884 13.9814C13.6884 12.5102 12.4958 11.3177 11.0247 11.3177C9.55355 11.3177 8.36097 12.5102 8.36097 13.9814C8.36097 15.4525 9.55355 16.6451 11.0247 16.6451Z" fill="#29D8FF"/>
</svg>
