<svg width="21" height="28" viewBox="0 0 21 28" fill="none" xmlns="http://www.w3.org/2000/svg">
<path d="M16.8443 9.69988C14.4443 5.99988 9.54434 4.89988 5.74434 7.19988C2.04434 9.49988 0.844335 14.4999 3.24434 18.1999L3.44434 18.4999L2.64434 21.4999L5.64434 20.6999L5.94434 20.8999C7.24434 21.5999 8.64434 21.9999 10.0443 21.9999C11.5443 21.9999 13.0443 21.5999 14.3443 20.7999C18.0443 18.3999 19.1443 13.4999 16.8443 9.69988V9.69988ZM14.7443 17.3999C14.3443 17.9999 13.8443 18.3999 13.1443 18.4999C12.7443 18.4999 12.2443 18.6999 10.2443 17.8999C8.54434 17.0999 7.14434 15.7999 6.14434 14.2999C5.54434 13.5999 5.24434 12.6999 5.14434 11.7999C5.14434 10.9999 5.44434 10.2999 5.94434 9.79988C6.14434 9.59988 6.34434 9.49988 6.54434 9.49988H7.04434C7.24434 9.49988 7.44434 9.49988 7.54434 9.89988C7.74434 10.3999 8.24434 11.5999 8.24434 11.6999C8.34434 11.7999 8.34434 11.9999 8.24434 12.0999C8.34434 12.2999 8.24434 12.4999 8.14434 12.5999C8.04434 12.6999 7.94434 12.8999 7.84434 12.9999C7.64434 13.0999 7.54434 13.2999 7.64434 13.4999C8.04434 14.0999 8.54434 14.6999 9.04434 15.1999C9.64434 15.6999 10.2443 16.0999 10.9443 16.3999C11.1443 16.4999 11.3443 16.4999 11.4443 16.2999C11.5443 16.0999 12.0443 15.5999 12.2443 15.3999C12.4443 15.1999 12.5443 15.1999 12.7443 15.2999L14.3443 16.0999C14.5443 16.1999 14.7443 16.2999 14.8443 16.3999C14.9443 16.6999 14.9443 17.0999 14.7443 17.3999V17.3999Z" fill="#29D8FF"/>
</svg>
