<svg width="100" height="52" viewBox="0 0 100 52" fill="none" xmlns="http://www.w3.org/2000/svg">
<path d="M30.806 23.9547L32.1997 22.5341L32.1959 23.8079L30.9467 25.5442L30.806 23.9547Z" fill="#29D8FF" stroke="white" stroke-width="0.00998722"/>
<path d="M33.3503 23.4179H37.5757C37.944 23.4179 38.2245 23.5055 38.4349 23.6809C38.6277 23.8386 38.7329 24.0841 38.7329 24.3997C38.7329 24.7329 38.6277 24.9783 38.4173 25.1361C38.2069 25.3114 37.9089 25.3991 37.5232 25.3991H33.3503V23.4179V23.4179ZM37.6459 26.4686C38.3297 26.4686 38.8732 26.2757 39.2765 25.89C39.6973 25.5043 39.9076 24.9958 39.9076 24.3822C39.9076 23.7335 39.6973 23.2425 39.2765 22.8919C38.8557 22.5237 38.277 22.3484 37.5232 22.3484H32.2107V29.6596H33.3503V26.4686H37.6459V26.4686ZM43.7272 23.4179H47.9526C48.3208 23.4179 48.6013 23.5055 48.8117 23.6809C49.0046 23.8386 49.1097 24.0841 49.1097 24.3997C49.1097 24.7329 49.0045 24.9783 48.7942 25.1361C48.5838 25.3114 48.2857 25.3991 47.9 25.3991H43.7272V23.4179V23.4179ZM48.0227 26.4686C48.7065 26.4686 49.25 26.2757 49.6533 25.89C50.0741 25.5043 50.2845 24.9958 50.2845 24.3822C50.2845 23.7335 50.0741 23.2425 49.6533 22.8919C49.2325 22.5237 48.6539 22.3484 47.9 22.3484H42.5875V29.6596H43.7272V26.4686H48.0227V26.4686ZM59.5346 29.6596V28.6076H54.0995V22.3484H52.9598V29.6596H59.5346H59.5346ZM63.4977 29.6596V25.9075L66.8465 22.3484H65.3211L62.9367 24.9432L60.5171 22.3484H59.0444L62.3756 25.9251V29.6596H63.4977V29.6596Z" stroke="white" stroke-width="0.2" stroke-miterlimit="10"/>
<path d="M43.7286 23.4189H47.954C48.323 23.4189 48.6048 23.5067 48.8163 23.683C49.0106 23.8419 49.1162 24.0889 49.1162 24.4057C49.1162 24.7399 49.0106 24.987 48.7987 25.146M43.7286 23.4189L48.7956 25.1421M43.7286 23.4189V23.4239M43.7286 23.4189V23.4239M48.7987 25.146C48.7986 25.146 48.7986 25.146 48.7986 25.1461L48.7956 25.1421M48.7987 25.146C48.7987 25.146 48.7987 25.1459 48.7988 25.1459L48.7956 25.1421M48.7987 25.146C48.5871 25.3223 48.2877 25.4101 47.9014 25.4101H43.7286V25.4051M48.7956 25.1421C48.5852 25.3174 48.2871 25.4051 47.9014 25.4051H43.7336H43.7286M43.7286 25.4051H43.7236V23.4239H43.7286M43.7286 25.4051V25.4001V23.4239M39.268 25.8923L39.2679 25.8924C38.8657 26.277 38.3236 26.4696 37.6408 26.4696H33.3452V26.4746H33.3402V29.6606H32.2106V22.3594H37.518C38.2712 22.3594 38.8484 22.5345 39.268 22.9016L39.2681 22.9017C39.6876 23.2512 39.8975 23.7406 39.8975 24.3882C39.8975 25.0005 39.6876 25.5077 39.268 25.8923ZM49.6513 25.8923L49.6512 25.8924C49.2491 26.277 48.7069 26.4696 48.0241 26.4696H43.7286V26.4746H43.7236V29.6606H42.5939V22.3594H47.9014C48.6546 22.3594 49.2318 22.5345 49.6514 22.9016L49.6515 22.9017C50.071 23.2512 50.2809 23.7406 50.2809 24.3882C50.2809 25.0005 50.071 25.5077 49.6513 25.8923ZM63.4959 25.9101L63.4945 25.9088V25.9135V29.6606H62.3824V25.9311H62.3842L62.3811 25.9277L59.0576 22.3594H60.5167L62.9348 24.9526L62.9384 24.9492L62.9421 24.9458L62.9858 24.9051L65.3251 22.3594H66.8367L63.4959 25.9101ZM37.5707 23.4189H33.3452V23.4239H33.3402V25.4051H33.3452V25.4101H37.518C37.9044 25.4101 38.2037 25.3223 38.4153 25.146C38.6272 24.987 38.7328 24.7399 38.7328 24.4057C38.7328 24.089 38.6272 23.8419 38.433 23.683C38.2214 23.5067 37.9396 23.4189 37.5707 23.4189ZM59.5247 28.6186V29.6606H52.9599V22.3594H54.0895V28.6136H54.0945V28.6186H59.5247Z" fill="white" stroke="white" stroke-width="0.00998722"/>
<path d="M31.981 42.8622L31.9812 42.8624C32.1929 43.0388 32.2986 43.2858 32.2986 43.6026C32.2986 43.9368 32.193 44.1839 31.9811 44.3429M31.981 42.8622L31.978 44.339M31.981 42.8622C31.7695 42.7036 31.4703 42.6158 31.0839 42.6158H27.1916V42.6208M31.981 42.8622L27.1916 42.6208M31.9811 44.3429C31.9811 44.3429 31.9811 44.343 31.981 44.343L31.978 44.339M31.9811 44.3429C31.9812 44.3429 31.9812 44.3429 31.9812 44.3428L31.978 44.339M31.9811 44.3429C31.7696 44.5192 31.4702 44.607 31.0839 44.607H27.1916V44.602M31.978 44.339C31.7677 44.5143 31.4696 44.602 31.0839 44.602H27.1966H27.1916M27.1916 44.602H27.1866V42.6208V42.6208H27.1916M27.1916 44.602V44.597V42.6208M6.80102 43.6026L6.79691 43.6054L6.79602 43.606V48.8575H5.66637V41.5563H6.60554L9.60217 45.8322L9.60626 45.8293L9.61035 45.8264L9.61824 45.8209L12.607 41.5563H13.5461V48.8575H12.4165V43.6026H12.4115H12.4065H12.4054L9.60626 47.6614L6.80513 43.5998L6.80102 43.6026ZM19.7888 43.2344L19.7844 43.2367L19.7812 43.2383L18.3467 46.0374L18.3511 46.0397L18.3556 46.042L18.3609 46.0447H21.209V46.0397V46.0347V46.0286L19.7933 43.2322L19.7888 43.2344ZM17.8558 47.0017L16.9104 48.8575H15.7119L19.4237 41.5563H20.1365L23.8834 48.8575H22.6673L21.7219 47.0017L21.7273 46.9989H21.7175H17.8602V46.9929L17.8558 47.0017ZM30.3868 45.6687L30.3903 45.6665H30.3826H27.1916V45.6715H27.1866V48.8575H26.0569V41.5738H31.0839C31.8195 41.5738 32.4143 41.7489 32.8339 42.1161L32.834 42.1162C33.2534 42.4657 33.4633 42.9726 33.4633 43.6026C33.4633 44.1274 33.2884 44.5821 32.9562 44.9493L32.9561 44.9494C32.6238 45.3342 32.2041 45.5615 31.6616 45.649L31.6624 45.654L31.6632 45.6589L31.6645 45.6665L33.6872 48.8575H32.4541L30.3868 45.6687ZM42.479 43.7429L42.4753 43.7462L42.474 43.7474V48.8575H41.3619V41.5563H41.9509L46.5955 46.6917L46.5992 46.6884L46.603 46.685L46.6042 46.6838V41.5563H47.7164V48.8575H47.1274L42.4827 43.7395L42.479 43.7429ZM37.7587 41.5387V48.8575H36.6115V41.5387H37.7587ZM58.4436 47.8155V48.8575H51.2827V41.5563H58.128V42.6158H52.4173V42.6208H52.4123V44.4442H52.4173V44.4492H56.1643V45.4912H52.4173V45.4961H52.4123V47.8105H52.4173V47.8155H58.4436Z" fill="white" stroke="white" stroke-width="0.00998722"/>
<path d="M6.80105 48.8678V43.608L9.60622 47.6756L12.4115 43.608V48.8678H13.5511V41.5566H12.6043L9.60622 45.8347L6.60814 41.5566H5.66138V48.8678H6.80105V48.8678ZM19.7857 43.2398L21.2058 46.045H18.348L19.7857 43.2398ZM16.9103 48.8678L17.8571 47.0093H21.7143L22.6611 48.8678H23.8884L20.1364 41.5566H19.4176L15.7006 48.8678H16.9103H16.9103ZM27.1956 42.6262H31.0879C31.4736 42.6262 31.7717 42.7138 31.9821 42.8716C32.1924 43.047 32.2976 43.2924 32.2976 43.608C32.2976 43.9412 32.1924 44.1866 31.9821 44.3444C31.7717 44.5197 31.4736 44.6074 31.0879 44.6074H27.1956V42.6262V42.6262ZM30.3866 45.6769L32.4555 48.8678H33.7003L31.6664 45.6593C32.21 45.5717 32.6307 45.3437 32.9639 44.958C33.297 44.5899 33.4723 44.134 33.4723 43.608C33.4723 42.9768 33.262 42.4684 32.8412 42.1177C32.4204 41.7495 31.8243 41.5742 31.0879 41.5742H26.0559V48.8678H27.1956V45.6769H30.3866ZM37.7588 48.8678V41.5391H36.6017V48.8678H37.7588ZM42.4771 48.8678V43.7483L47.1233 48.8678H47.7194V41.5566H46.5973V46.6938L41.9511 41.5566H41.355V48.8678H42.4771ZM58.4437 48.8678V47.8158H52.4124V45.5016H56.1644V44.4496H52.4124V42.6262H58.1281V41.5566H51.2728V48.8678H58.4437H58.4437Z" stroke="white" stroke-width="0.2" stroke-miterlimit="10"/>
<path d="M99.1544 30.2977C99.4679 29.858 99.6961 29.5114 99.8366 29.2981C99.851 29.2763 99.8644 29.2559 99.8769 29.237C99.9107 29.1858 99.9377 29.1451 99.9581 29.1156C99.9682 29.1009 99.9767 29.089 99.9834 29.0801C99.9872 29.0751 99.9903 29.0712 99.9929 29.0682C99.9922 29.0704 99.9914 29.073 99.9903 29.076C99.9836 29.0947 99.9701 29.1263 99.9497 29.172C97.6718 34.2549 95.048 38.7243 92.0687 41.99C89.0894 45.2558 85.7551 47.3175 82.0562 47.5863C78.3821 47.8524 73.985 46.2203 71.5148 43.2101C69.1627 40.3428 68.4236 36.0573 69.2403 30.9374C69.609 29.2558 70.0273 27.8808 70.3571 26.942C70.4445 26.7448 70.5245 26.5662 70.5954 26.4078C70.6797 26.2196 70.7511 26.06 70.8071 25.9318C70.8587 25.8138 70.8971 25.7222 70.9205 25.6595C70.9321 25.6281 70.9401 25.6038 70.944 25.5868C70.9459 25.5783 70.9469 25.5714 70.9467 25.5661C70.9467 25.5652 70.9466 25.5642 70.9465 25.5632C70.9463 25.5617 70.9459 25.5602 70.9453 25.5588C70.9447 25.5576 70.944 25.5565 70.943 25.5556C70.9421 25.5547 70.941 25.554 70.9397 25.5536C70.937 25.5527 70.9344 25.5532 70.9322 25.5541C70.93 25.555 70.9279 25.5565 70.9258 25.5583C70.9215 25.5619 70.9167 25.5675 70.9114 25.5747C70.9006 25.5893 70.8871 25.6115 70.871 25.6411C70.8389 25.7004 70.7962 25.7898 70.7449 25.9073C70.6423 26.1425 70.5049 26.4909 70.3478 26.9384C70.1908 27.2908 70.01 27.7029 69.8145 28.1644C71.5333 21.349 75.7184 13.365 82.2514 5.38708L82.2475 5.38392L82.2437 5.38075L82.2389 5.37688L82.2486 5.37904C72.1064 3.11136 58.8079 1.59051 43.6757 3.79195C39.9481 4.33485 36.4427 5.05438 33.1723 5.8843L33.1723 5.88431L30.9424 6.47262L30.9423 6.47264C29.1565 6.96358 27.454 7.48309 25.8368 8.0169L25.8384 8.02164L25.8399 8.02639L25.8504 8.05795L28.0235 12.5589C27.2245 13.6213 25.3893 16.1155 24.0064 18.6417C23.3145 19.9058 22.7356 21.1781 22.4564 22.2833C22.1773 23.3881 22.1975 24.3275 22.7059 24.924C23.0428 25.3188 23.5439 25.5048 24.1024 25.5875C24.6605 25.6702 25.2767 25.6498 25.8451 25.631L25.8463 25.6309C27.9176 25.5635 29.6326 24.7738 30.9387 23.8653V25.5564C29.3519 27.2834 27.3585 29.3137 25.4167 30.9124C24.4455 31.712 23.4874 32.4036 22.5997 32.8952C21.7119 33.3868 20.8949 33.6782 20.2059 33.6782C19.1113 33.6782 18.3501 33.45 17.8528 32.9821C17.3554 32.5142 17.1209 31.8057 17.0818 30.8429C17.0426 29.8801 17.1988 28.6637 17.4821 27.1811C17.7418 25.8221 18.1082 24.2396 18.5286 22.4239C18.5668 22.2589 18.6055 22.0919 18.6445 21.923L18.6397 21.9219L18.6348 21.9208L18.6345 21.9207L18.6355 21.9192C18.6332 21.9227 18.6257 21.9315 18.6138 21.9445L18.6136 21.9447L18.605 21.9549C15.6796 25.4315 13.3123 28.2449 11.3001 30.1501C10.293 31.1037 9.37504 31.8295 8.52076 32.2972C7.6665 32.7649 6.87621 32.9742 6.12428 32.8951C4.59673 32.7343 3.0082 31.361 1.8323 29.4223C0.656559 27.4838 -0.105795 24.9815 0.0181623 22.565C0.284277 17.4 4.56878 13.2667 9.32587 10.2238C14.0826 7.181 19.3102 5.2295 21.4595 4.42753C24.8152 3.17442 27.6681 2.49003 30.9445 1.94849L33.1743 1.60693C34.5821 1.4066 36.0923 1.21397 37.7631 1.00086L37.8887 0.984841C51.826 -0.790435 62.8571 0.265261 67.9204 0.903034C72.8472 1.5249 79.36 2.66323 86.8541 4.8942C84.2099 7.80158 81.4391 11.5807 79.2662 16.3535C78.6798 17.6412 76.8211 21.7241 75.7896 26.1796C75.2739 28.4074 74.9649 30.7285 75.1252 32.8401C75.2855 34.9517 75.9153 36.8541 77.2775 38.2439C79.093 40.0959 81.7117 40.5286 82.6522 40.6325C83.7367 40.7521 85.0597 40.5177 86.4965 40.0112C87.9334 39.5047 89.4845 38.726 91.0255 37.7563C94.1065 35.8175 97.1473 33.1153 99.1529 30.2998M99.1544 30.2977L99.1503 30.2948L99.1503 30.2998H99.1529M99.1544 30.2977C99.1539 30.2984 99.1534 30.2991 99.1529 30.2998M99.1544 30.2977L99.1573 30.2998H99.1529M5.96382 27.1157L5.96385 27.1157C6.20008 27.2731 6.55122 27.3193 6.99766 27.2543C7.44423 27.1894 7.98692 27.0131 8.607 26.7244C9.84719 26.1471 11.3977 25.12 13.1094 23.6333C16.5329 20.6599 20.6015 15.848 24.1219 9.11874L24.1175 9.11643L24.1131 9.11411L24.1115 9.11329C23.3053 9.40556 19.6303 10.7612 15.7397 12.7486C13.7909 13.744 11.7879 14.8981 10.0641 16.1564C8.34042 17.4147 6.89559 18.7775 6.06357 20.1908C5.72073 20.7732 5.16818 21.712 4.82561 22.7496C4.48307 23.7871 4.35015 24.9244 4.84778 25.9035C5.19386 26.5852 5.75981 26.978 5.96382 27.1157Z" fill="#29D8FF" stroke="white" stroke-width="0.00998722"/>
<path d="M86.7972 47.8521C85.9803 48.6118 82.4418 51.6848 77.16 51.4954C76.7842 51.4817 75.3346 51.4129 73.6274 50.9289C71.9203 50.4449 69.956 49.5459 68.5503 47.8723C66.4154 45.3304 66.2265 41.6021 66.822 37.917C67.4126 34.2628 68.7744 30.6526 69.7728 28.287C69.5477 29.1912 69.367 30.0758 69.2299 30.9354C68.9573 32.1809 68.7104 33.5967 68.548 35.1268C68.2702 37.7324 68.4156 38.9718 68.4689 39.3813C68.6481 40.736 69.056 43.7918 71.5429 46.4738C74.2428 49.3868 77.6482 49.9195 78.3994 50.0208C82.7814 50.6092 85.9928 48.4401 86.7972 47.8521Z" fill="#29D8FF" stroke="white" stroke-width="0.00998722"/>
<path d="M70.3079 27.0521C69.996 27.9539 69.6129 29.2256 69.2682 30.7642C69.4048 29.9397 69.5812 29.0927 69.7983 28.2279C69.9833 27.7898 70.1557 27.395 70.3079 27.0521Z" fill="#29D8FF" stroke="white" stroke-width="0.00998722"/>
<path d="M70.5861 26.4024C70.5295 26.529 70.467 26.6685 70.3995 26.8201C70.5387 26.4309 70.6604 26.1243 70.7534 25.9111C70.8047 25.7936 70.8472 25.7045 70.8792 25.6456C70.8952 25.6161 70.9085 25.5943 70.9188 25.5804C70.924 25.5733 70.9282 25.5685 70.9316 25.5656C70.9333 25.5642 70.9346 25.5634 70.9354 25.5631C70.9355 25.563 70.9356 25.563 70.9357 25.563C70.9359 25.5636 70.9361 25.5646 70.9361 25.5662C70.9363 25.5701 70.9355 25.576 70.9336 25.5843C70.9299 25.6006 70.9221 25.6244 70.9105 25.6557C70.8873 25.7182 70.8489 25.8095 70.7973 25.9275C70.7415 26.0554 70.6702 26.2146 70.5861 26.4024Z" fill="#29D8FF" stroke="white" stroke-width="0.00998722"/>
<path d="M70.3079 27.0521C69.996 27.9539 69.6129 29.2256 69.2682 30.7642C69.4048 29.9397 69.5812 29.0927 69.7983 28.2279C69.9833 27.7898 70.1557 27.395 70.3079 27.0521Z" fill="#29D8FF" stroke="white" stroke-width="0.00998722"/>
<path d="M70.5861 26.4024C70.5295 26.529 70.467 26.6685 70.3995 26.8201C70.5387 26.4309 70.6604 26.1243 70.7534 25.9111C70.8047 25.7936 70.8472 25.7045 70.8792 25.6456C70.8952 25.6161 70.9085 25.5943 70.9188 25.5804C70.924 25.5733 70.9282 25.5685 70.9316 25.5656C70.9333 25.5642 70.9346 25.5634 70.9354 25.5631C70.9355 25.563 70.9356 25.563 70.9357 25.563C70.9359 25.5636 70.9361 25.5646 70.9361 25.5662C70.9363 25.5701 70.9355 25.576 70.9336 25.5843C70.9299 25.6006 70.9221 25.6244 70.9105 25.6557C70.8873 25.7182 70.8489 25.8095 70.7973 25.9275C70.7415 26.0554 70.6702 26.2146 70.5861 26.4024Z" fill="#29D8FF" stroke="white" stroke-width="0.00998722"/>
</svg>
