<svg width="24" height="24" viewBox="0 0 24 24" fill="none" xmlns="http://www.w3.org/2000/svg">
<path fill-rule="evenodd" clip-rule="evenodd" d="M11.7969 18.9183H13.1308C13.1308 18.9183 13.5309 18.8496 13.731 18.6434C13.9311 18.4373 13.9311 18.025 13.9311 18.025C13.9311 18.025 13.9311 16.2384 14.7314 15.9636C15.5317 15.6887 16.5988 17.7501 17.6659 18.506C18.4662 19.1244 19.0665 18.987 19.0665 18.987L22.001 18.9183C22.001 18.9183 23.5349 18.8496 22.8013 17.544C22.7346 17.4753 22.4011 16.6507 20.6004 14.9328C18.733 13.1463 18.9998 13.4899 21.2007 10.3977C22.5345 8.54243 23.0681 7.443 22.9347 6.89328C22.8013 6.41228 21.8009 6.54971 21.8009 6.54971H18.4662C18.4662 6.54971 18.1995 6.481 18.0661 6.61843C17.866 6.75586 17.7993 6.962 17.7993 6.962C17.7993 6.962 17.2658 8.405 16.5988 9.64185C15.1316 12.1843 14.5313 12.3217 14.3312 12.1843C13.7977 11.8407 13.9311 10.6726 13.9311 9.91671C13.9311 7.443 14.3312 6.41228 13.1975 6.13743C12.864 6.06871 12.5972 6 11.6635 6C10.463 6 9.46264 6 8.92909 6.27486C8.52893 6.481 8.26216 6.89328 8.46224 6.89328C8.66232 6.89328 9.19587 7.03071 9.46264 7.37428C9.72941 7.99271 9.72941 9.02343 9.72941 9.02343C9.72941 9.02343 9.92949 11.9781 9.26256 12.3217C8.7957 12.5966 8.19547 12.0469 6.8616 9.71057C6.19467 8.54243 5.66112 7.16814 5.66112 7.16814C5.66112 7.16814 5.59443 6.89329 5.39435 6.75586C5.19427 6.61843 4.8608 6.54971 4.8608 6.54971H1.72622C1.72622 6.54971 1.25936 6.54971 1.05928 6.75586C0.925896 6.962 1.05928 7.30557 1.05928 7.30557C1.05928 7.30557 3.52693 13.215 6.32805 16.2384C8.92909 19.1244 11.7969 18.9183 11.7969 18.9183Z" fill="#0031E0"/>
</svg>
