<svg width="80" height="80" viewBox="0 0 80 80" fill="none" xmlns="http://www.w3.org/2000/svg">
<path d="M36.563 69.3978C28.4033 69.3978 21.0154 66.1071 15.6679 60.7873C10.3201 55.467 7.0127 48.1177 7.0127 40.0001C7.0127 31.8825 10.3205 24.5327 15.6679 19.2129C21.0158 13.8926 28.4033 10.6023 36.563 10.6023V16.665C30.0853 16.665 24.2212 19.277 19.9763 23.4994C15.7315 27.7224 13.1064 33.5562 13.1064 40.0005C13.1064 46.4448 15.7319 52.2786 19.9763 56.5015C24.2212 60.7245 30.0853 63.336 36.563 63.336V69.3987V69.3978Z" fill="#CCCCCC"/>
<path d="M36.1299 70.6044C44.6251 70.6044 52.3162 67.179 57.8828 61.6411C62.8182 56.7312 66.0841 50.1601 66.7616 42.843H51.4375V36.7803H66.7244C65.9712 29.6146 62.7334 23.185 57.8832 18.3594C52.3166 12.8215 44.6256 9.39609 36.1303 9.39609V3.33337C46.3076 3.33337 55.5219 7.43756 62.1921 14.0728C68.8618 20.7081 72.9872 29.8749 72.9872 40C72.9872 50.1248 68.8618 59.292 62.1921 65.9273C55.5219 72.5625 46.3076 76.6667 36.1303 76.6667V70.604L36.1299 70.6044Z" fill="white"/>
<path fill-rule="evenodd" clip-rule="evenodd" d="M35.9277 22.6385C37.784 26.5956 37.6854 31.0099 42.8218 37.4142C44.0386 38.9159 47.1687 42.5766 46.9689 47.6335C46.7679 52.7262 42.562 57.6499 36.3632 57.6499C30.1643 57.6499 24.4316 53.9195 24.4316 46.8494C24.4316 39.4574 32.5689 35.2487 33.9906 29.9216C35.2069 25.364 34.9315 23.6016 34.8567 22.5972C34.7745 21.4938 35.4495 21.619 35.9277 22.6385Z" fill="white"/>
<path d="M35.6579 47.4673C35.6579 47.4118 35.6337 47.3615 35.5948 47.3249C35.5542 47.2866 35.4971 47.263 35.4335 47.263C35.3704 47.263 35.3133 47.2866 35.2727 47.3249C35.2338 47.3615 35.2095 47.4118 35.2095 47.4673C35.2095 47.6105 35.2714 47.7404 35.3717 47.8347C35.4733 47.9306 35.6151 47.9899 35.7721 47.9899C35.9291 47.9899 36.0704 47.9306 36.1721 47.8351C36.2719 47.7409 36.3342 47.6105 36.3342 47.4673C36.3342 47.2363 36.2343 47.0268 36.073 46.875C35.91 46.7214 35.6839 46.6268 35.434 46.6268C35.1836 46.6268 34.9575 46.7214 34.7949 46.8745C34.6336 47.0264 34.5337 47.2359 34.5337 47.4673C34.5337 47.7865 34.6712 48.0755 34.8939 48.2846C35.1183 48.4954 35.4288 48.6262 35.7725 48.6262C36.1163 48.6262 36.4267 48.4954 36.6507 48.2846C36.873 48.0755 37.0105 47.7865 37.0105 47.4673C37.0105 47.0604 36.8349 46.6917 36.5513 46.425C36.2659 46.1566 35.8707 45.9905 35.4335 45.9905C34.9968 45.9905 34.6012 46.1566 34.3158 46.425C34.0321 46.6917 33.8566 47.0604 33.8566 47.4669C33.8566 47.9616 34.0702 48.4098 34.4148 48.7337C34.7616 49.0598 35.2415 49.2615 35.7717 49.2615C36.3018 49.2615 36.7817 49.0598 37.1285 48.7337C37.4731 48.4093 37.6867 47.9611 37.6867 47.4669C37.6867 46.8844 37.4355 46.357 37.0295 45.9751C36.6213 45.5914 36.057 45.3539 35.4335 45.3539C34.81 45.3539 34.2453 45.5914 33.8376 45.9751C33.4315 46.357 33.1803 46.8844 33.1803 47.4669C33.1803 48.1371 33.4696 48.7444 33.9366 49.1841C34.4057 49.6254 35.0548 49.8981 35.7717 49.8981C36.4886 49.8981 37.1376 49.625 37.6067 49.1841C38.0737 48.7444 38.363 48.1375 38.363 47.4669C38.363 46.7085 38.0361 46.0219 37.5077 45.5251C36.9776 45.0261 36.2438 44.7177 35.4335 44.7177C34.6232 44.7177 33.8894 45.0261 33.3593 45.5251C32.8309 46.0219 32.5041 46.7089 32.5041 47.4669C32.5041 48.313 32.869 49.0791 33.4588 49.6336C34.0503 50.1898 34.8684 50.5344 35.7721 50.5344C36.6758 50.5344 37.4939 50.1902 38.0854 49.6336C38.6752 49.0791 39.0397 48.3126 39.0397 47.4669C39.0397 46.533 38.6371 45.6873 37.986 45.0752C37.333 44.4613 36.4306 44.0815 35.4335 44.0815C34.4364 44.0815 33.5336 44.4613 32.8811 45.0752C32.2303 45.6873 31.8274 46.533 31.8274 47.4669C31.8274 48.4885 32.268 49.4138 32.9801 50.0835C33.694 50.755 34.6812 51.1706 35.7721 51.1706C36.8626 51.1706 37.8498 50.755 38.5641 50.0835C39.2762 49.4138 39.7168 48.4885 39.7168 47.4669C39.7168 46.3575 39.2386 45.3526 38.4651 44.6252C37.6898 43.8961 36.6183 43.4453 35.434 43.4453C34.2496 43.4453 33.1782 43.8961 32.4029 44.6252C31.6293 45.3526 31.1511 46.357 31.1511 47.4669C31.1511 48.6644 31.6674 49.7485 32.5019 50.5335C33.3381 51.3198 34.4948 51.8068 35.7721 51.8068C37.0494 51.8068 38.2056 51.3203 39.0423 50.5335C39.8768 49.7489 40.3931 48.6644 40.3931 47.4669C40.3931 46.1815 39.8388 45.0179 38.9433 44.1757C38.0456 43.3313 36.8047 42.8091 35.434 42.8091C34.0628 42.8091 32.8223 43.3313 31.9246 44.1753C31.0292 45.0179 30.4748 46.1815 30.4748 47.4669C30.4748 48.8399 31.0668 50.0831 32.0237 50.9834C32.9827 51.8851 34.308 52.443 35.7721 52.443C37.2362 52.443 38.5615 51.8851 39.5205 50.9834C40.4774 50.0835 41.0694 48.8399 41.0694 47.4669C41.0694 46.006 40.4394 44.6833 39.4215 43.7257C38.4015 42.7665 36.9915 42.1728 35.434 42.1728C33.8765 42.1728 32.4664 42.7665 31.4464 43.7257C30.4281 44.6833 29.7986 46.006 29.7986 47.4669C29.7986 49.0159 30.4662 50.4182 31.5459 51.4334C32.6273 52.4503 34.1216 53.0792 35.773 53.0792C37.4243 53.0792 38.9186 52.4503 39.9996 51.433C41.0789 50.4178 41.7465 49.0155 41.7465 47.4669C41.7465 45.8301 41.0408 44.3482 39.9006 43.2758C38.7582 42.2012 37.1791 41.5366 35.4348 41.5366C33.6901 41.5366 32.111 42.2012 30.9691 43.2758C29.8284 44.3486 29.1232 45.8305 29.1232 47.4669C29.1232 49.1914 29.8664 50.7529 31.0681 51.8829C32.2719 53.0147 33.9353 53.715 35.7734 53.715C37.6111 53.715 39.2749 53.0147 40.4783 51.8829C41.6799 50.7529 42.4232 49.191 42.4232 47.4669H42.6519C42.6519 49.2563 41.881 50.8759 40.6344 52.0481C39.3899 53.2186 37.6707 53.9425 35.773 53.9425C33.8747 53.9425 32.156 53.2186 30.9111 52.0481C29.6649 50.8759 28.8936 49.2559 28.8936 47.4669C28.8936 45.7656 29.6269 44.2252 30.8121 43.1106C31.9956 41.9978 33.63 41.3091 35.4344 41.3091C37.2392 41.3091 38.8732 41.9973 40.0567 43.1106C41.2419 44.2252 41.9752 45.7656 41.9752 47.4669C41.9752 49.0804 41.2799 50.5412 40.1557 51.5982C39.0337 52.6533 37.4835 53.3063 35.7725 53.3063C34.0615 53.3063 32.5114 52.6533 31.3893 51.5982C30.2651 50.5408 29.5698 49.08 29.5698 47.4664C29.5698 45.9406 30.2275 44.5594 31.2903 43.5601C32.3514 42.5626 33.8168 41.9449 35.4344 41.9449C37.052 41.9449 38.5174 42.5621 39.5785 43.5601C40.6413 44.5598 41.2985 45.9411 41.2985 47.4664C41.2985 48.9045 40.6789 50.2061 39.6775 51.1482C38.6778 52.0885 37.2972 52.6701 35.773 52.6701C34.2483 52.6701 32.8677 52.0885 31.868 51.1482C30.8666 50.2061 30.247 48.9045 30.247 47.4664C30.247 46.1166 30.829 44.8945 31.769 44.0096C32.7077 43.1269 34.0036 42.5811 35.4348 42.5811C36.8656 42.5811 38.1619 43.1269 39.1007 44.0096C40.0411 44.8941 40.6227 46.1162 40.6227 47.466C40.6227 48.7281 40.0788 49.871 39.1997 50.6978C38.3224 51.5229 37.1108 52.0335 35.7734 52.0335C34.4356 52.0335 33.224 51.5229 32.3467 50.6978C31.4676 49.871 30.9236 48.7281 30.9236 47.466C30.9236 46.2917 31.43 45.2287 32.2476 44.4592C33.0636 43.6918 34.1908 43.2169 35.4348 43.2169C36.6793 43.2169 37.8061 43.6918 38.622 44.4592C39.4401 45.2287 39.946 46.2917 39.946 47.466C39.946 48.5526 39.4777 49.5359 38.721 50.2479C37.9661 50.9581 36.9236 51.3973 35.773 51.3973C34.6224 51.3973 33.5794 50.9581 32.8245 50.2479C32.0678 49.5364 31.5995 48.5526 31.5995 47.466C31.5995 46.4672 32.0297 45.5634 32.7254 44.9091C33.419 44.2566 34.3772 43.8531 35.4344 43.8531C36.4916 43.8531 37.4494 44.2566 38.1434 44.9091C38.8391 45.5634 39.2693 46.4672 39.2693 47.466C39.2693 48.3767 38.8767 49.2013 38.2424 49.7979C37.6098 50.3928 36.7368 50.7606 35.7725 50.7606C34.8087 50.7606 33.9353 50.3924 33.3027 49.7979C32.6684 49.2013 32.2757 48.3767 32.2757 47.466C32.2757 46.6431 32.6303 45.8981 33.2037 45.3591C33.7749 44.8218 34.5636 44.4893 35.4344 44.4893C36.3048 44.4893 37.0939 44.8218 37.6651 45.3591C38.238 45.8981 38.593 46.6431 38.593 47.466C38.593 48.2012 38.2761 48.8666 37.7646 49.3484C37.2543 49.828 36.55 50.1248 35.773 50.1248C34.9955 50.1248 34.2911 49.828 33.7813 49.3484C33.2694 48.867 32.9524 48.2012 32.9524 47.466C32.9524 46.819 33.2313 46.2327 33.6819 45.809C34.1307 45.387 34.7503 45.1255 35.4344 45.1255C36.118 45.1255 36.7381 45.3866 37.1869 45.809C37.6375 46.2332 37.9163 46.819 37.9163 47.466C37.9163 48.0252 37.6751 48.5319 37.2859 48.898C36.8985 49.2624 36.3632 49.4882 35.773 49.4882C35.1823 49.4882 34.647 49.2624 34.2596 48.898C33.87 48.5319 33.6291 48.0252 33.6291 47.466C33.6291 46.9945 33.8324 46.5674 34.1606 46.259C34.487 45.9518 34.9376 45.7621 35.4348 45.7621C35.9321 45.7621 36.3822 45.9523 36.7087 46.259C37.0369 46.5678 37.2401 46.9945 37.2401 47.4664C37.2401 47.8497 37.0749 48.1973 36.8077 48.4485C36.5426 48.6984 36.1764 48.8528 35.773 48.8528C35.3691 48.8528 35.0033 48.6984 34.7378 48.4489C34.4706 48.1977 34.3054 47.8501 34.3054 47.4664C34.3054 47.1705 34.433 46.9029 34.6388 46.7089C34.8433 46.5171 35.1248 46.3983 35.4344 46.3983C35.7444 46.3983 36.0259 46.5171 36.23 46.7089C36.4358 46.9025 36.5634 47.1705 36.5634 47.4664C36.5634 47.6746 36.4739 47.863 36.329 47.999C36.1859 48.1332 35.9892 48.2166 35.7725 48.2166C35.5559 48.2166 35.3587 48.1332 35.216 47.999C35.0712 47.863 34.9817 47.6746 34.9817 47.4664C34.9817 47.3464 35.0336 47.2376 35.117 47.1589C35.1987 47.0823 35.3107 47.0346 35.4344 47.0346C35.5576 47.0346 35.6705 47.0823 35.7518 47.1589C35.8352 47.2376 35.8871 47.346 35.8871 47.4664H35.6584L35.6579 47.4673Z" fill="#CCCCCC"/>
</svg>
