<svg width="100" height="60" viewBox="0 0 100 60" fill="none" xmlns="http://www.w3.org/2000/svg">
<path d="M27.4314 50.4221C21.6888 50.4221 16.4895 48.1061 12.7261 44.3622C8.96241 40.618 6.63477 35.4457 6.63477 29.7328C6.63477 24.0198 8.96272 18.8473 12.7261 15.1033C16.4898 11.3591 21.6888 9.04346 27.4314 9.04346V13.3102C22.8726 13.3102 18.7456 15.1484 15.7582 18.1201C12.7708 21.0921 10.9234 25.1978 10.9234 29.7331C10.9234 34.2684 12.7711 38.3741 15.7582 41.346C18.7456 44.318 22.8726 46.1559 27.4314 46.1559V50.4227V50.4221Z" fill="#333333"/>
<path d="M27.1267 51.2712C33.1054 51.2712 38.5181 48.8605 42.4358 44.9631C45.9092 41.5076 48.2076 36.883 48.6844 31.7335H37.8998V27.4667H48.6583C48.1282 22.4237 45.8495 17.8987 42.4361 14.5026C38.5185 10.6052 33.1057 8.1945 27.127 8.1945V3.92773C34.2895 3.92773 40.7743 6.81614 45.4685 11.4859C50.1625 16.1556 53.0659 22.6069 53.0659 29.7327C53.0659 36.8582 50.1625 43.3098 45.4685 47.9795C40.7743 52.6492 34.2895 55.5376 27.127 55.5376V51.2709L27.1267 51.2712Z" fill="#141414"/>
<path fill-rule="evenodd" clip-rule="evenodd" d="M26.9842 17.5146C28.2906 20.2995 28.2212 23.4062 31.8361 27.9133C32.6924 28.9702 34.8953 31.5464 34.7547 35.1054C34.6132 38.6895 31.6532 42.1546 27.2906 42.1546C22.9281 42.1546 18.8936 39.5293 18.8936 34.5535C18.8936 29.3513 24.6203 26.3893 25.6209 22.6402C26.4769 19.4327 26.2831 18.1924 26.2304 17.4855C26.1726 16.709 26.6476 16.7971 26.9842 17.5146Z" fill="#141414"/>
<path d="M26.794 34.9883C26.794 34.9492 26.777 34.9138 26.7496 34.8881C26.721 34.8611 26.6808 34.8445 26.6361 34.8445C26.5917 34.8445 26.5515 34.8611 26.5229 34.8881C26.4955 34.9138 26.4785 34.9492 26.4785 34.9883C26.4785 35.0891 26.522 35.1805 26.5926 35.2468C26.6641 35.3143 26.7639 35.3561 26.8744 35.3561C26.9848 35.3561 27.0843 35.3143 27.1559 35.2471C27.2261 35.1808 27.27 35.0891 27.27 34.9883C27.27 34.8257 27.1997 34.6783 27.0862 34.5714C26.9714 34.4633 26.8123 34.3967 26.6364 34.3967C26.4602 34.3967 26.3011 34.4633 26.1866 34.5711C26.0731 34.678 26.0028 34.8254 26.0028 34.9883C26.0028 35.2129 26.0996 35.4163 26.2563 35.5635C26.4143 35.7118 26.6327 35.8038 26.8747 35.8038C27.1166 35.8038 27.3351 35.7118 27.4927 35.5635C27.6491 35.4163 27.7459 35.2129 27.7459 34.9883C27.7459 34.7019 27.6224 34.4424 27.4227 34.2547C27.2219 34.0658 26.9438 33.949 26.6361 33.949C26.3287 33.949 26.0503 34.0658 25.8495 34.2547C25.6498 34.4424 25.5263 34.7019 25.5263 34.988C25.5263 35.3361 25.6766 35.6516 25.9191 35.8795C26.1632 36.109 26.501 36.251 26.8741 36.251C27.2471 36.251 27.5849 36.109 27.829 35.8795C28.0715 35.6513 28.2218 35.3358 28.2218 34.988C28.2218 34.5781 28.045 34.2069 27.7593 33.9381C27.472 33.668 27.0749 33.5009 26.6361 33.5009C26.1973 33.5009 25.7999 33.668 25.5129 33.9381C25.2272 34.2069 25.0503 34.5781 25.0503 34.988C25.0503 35.4596 25.2539 35.8871 25.5826 36.1965C25.9128 36.5071 26.3695 36.699 26.8741 36.699C27.3786 36.699 27.8354 36.5068 28.1655 36.1965C28.4942 35.8871 28.6978 35.4599 28.6978 34.988C28.6978 34.4542 28.4677 33.9711 28.0959 33.6214C27.7228 33.2702 27.2064 33.0532 26.6361 33.0532C26.0658 33.0532 25.5494 33.2702 25.1763 33.6214C24.8045 33.9711 24.5744 34.4545 24.5744 34.988C24.5744 35.5834 24.8312 36.1226 25.2463 36.5129C25.6626 36.9043 26.2384 37.1468 26.8744 37.1468C27.5104 37.1468 28.0861 36.9046 28.5024 36.5129C28.9175 36.1226 29.174 35.5831 29.174 34.988C29.174 34.3307 28.8907 33.7355 28.4324 33.3048C27.9729 32.8727 27.3378 32.6054 26.6361 32.6054C25.9344 32.6054 25.299 32.8727 24.8398 33.3048C24.3818 33.7355 24.0982 34.3307 24.0982 34.988C24.0982 35.707 24.4083 36.3582 24.9095 36.8295C25.4119 37.3021 26.1066 37.5945 26.8744 37.5945C27.6418 37.5945 28.3366 37.3021 28.8393 36.8295C29.3405 36.3582 29.6506 35.707 29.6506 34.988C29.6506 34.2072 29.314 33.5 28.7696 32.9881C28.224 32.475 27.4699 32.1577 26.6364 32.1577C25.8029 32.1577 25.0488 32.475 24.5032 32.9881C23.9588 33.5 23.6222 34.2069 23.6222 34.988C23.6222 35.8308 23.9856 36.5937 24.5729 37.1462C25.1614 37.6996 25.9754 38.0423 26.8744 38.0423C27.7733 38.0423 28.587 37.6999 29.1758 37.1462C29.7632 36.594 30.1265 35.8308 30.1265 34.988C30.1265 34.0834 29.7364 33.2645 29.1062 32.6717C28.4744 32.0775 27.6011 31.7099 26.6364 31.7099C25.6714 31.7099 24.7984 32.0775 24.1666 32.6714C23.5364 33.2645 23.1463 34.0834 23.1463 34.988C23.1463 35.9543 23.5629 36.8292 24.2363 37.4628C24.9113 38.0974 25.844 38.49 26.8744 38.49C27.9048 38.49 28.8375 38.0974 29.5124 37.4628C30.1858 36.8295 30.6024 35.9543 30.6024 34.988C30.6024 33.9599 30.1591 33.029 29.4427 32.3551C28.7249 31.68 27.7325 31.2622 26.6364 31.2622C25.5403 31.2622 24.5479 31.68 23.8301 32.3551C23.1134 33.029 22.6704 33.9599 22.6704 34.988C22.6704 36.0781 23.1402 37.065 23.9001 37.7795C24.6611 38.4952 25.7128 38.9378 26.875 38.9378C28.0371 38.9378 29.0888 38.4952 29.8496 37.7792C30.6091 37.0647 31.079 36.0778 31.079 34.988C31.079 33.8361 30.5824 32.7931 29.7799 32.0384C28.9759 31.2822 27.8646 30.8144 26.637 30.8144C25.4091 30.8144 24.2978 31.2822 23.4941 32.0384C22.6914 32.7934 22.195 33.8364 22.195 34.988C22.195 36.2016 22.7181 37.3006 23.5638 38.0959C24.411 38.8924 25.5817 39.3852 26.8753 39.3852C28.1686 39.3852 29.3396 38.8924 30.1865 38.0959C31.0321 37.3006 31.5552 36.2013 31.5552 34.988H31.7162C31.7162 36.2474 31.1736 37.3872 30.2963 38.2121C29.4205 39.0359 28.2106 39.5454 26.875 39.5454C25.5391 39.5454 24.3294 39.0359 23.4533 38.2121C22.5763 37.3872 22.0334 36.247 22.0334 34.988C22.0334 33.7906 22.5496 32.7065 23.3837 31.9222C24.2165 31.139 25.3668 30.6543 26.6367 30.6543C27.9069 30.6543 29.0569 31.1387 29.8898 31.9222C30.7239 32.7065 31.24 33.7906 31.24 34.988C31.24 36.1235 30.7506 37.1516 29.9594 37.8954C29.1698 38.6381 28.0788 39.0976 26.8747 39.0976C25.6705 39.0976 24.5796 38.6381 23.7899 37.8954C22.9987 37.1513 22.5094 36.1232 22.5094 34.9877C22.5094 33.9139 22.9722 32.9418 23.7202 32.2385C24.467 31.5365 25.4983 31.1017 26.6367 31.1017C27.7751 31.1017 28.8064 31.5362 29.5532 32.2385C30.3012 32.9421 30.7637 33.9142 30.7637 34.9877C30.7637 35.9997 30.3276 36.9158 29.6229 37.5788C28.9193 38.2406 27.9477 38.6499 26.875 38.6499C25.802 38.6499 24.8303 38.2406 24.1268 37.5788C23.422 36.9158 22.9859 35.9997 22.9859 34.9877C22.9859 34.0377 23.3955 33.1776 24.0571 32.5549C24.7177 31.9337 25.6298 31.5495 26.637 31.5495C27.644 31.5495 28.5563 31.9337 29.2169 32.5549C29.8788 33.1773 30.2881 34.0374 30.2881 34.9874C30.2881 35.8756 29.9053 36.68 29.2866 37.2618C28.6692 37.8425 27.8165 38.2018 26.8753 38.2018C25.9338 38.2018 25.0811 37.8425 24.4636 37.2618C23.845 36.68 23.4622 35.8756 23.4622 34.9874C23.4622 34.1609 23.8185 33.4128 24.394 32.8712C24.9682 32.3312 25.7615 31.9969 26.637 31.9969C27.5128 31.9969 28.3058 32.3312 28.8801 32.8712C29.4558 33.4128 29.8118 34.1609 29.8118 34.9874C29.8118 35.7521 29.4823 36.4441 28.9497 36.9452C28.4184 37.445 27.6847 37.7541 26.875 37.7541C26.0652 37.7541 25.3312 37.445 24.7999 36.9452C24.2674 36.4444 23.9378 35.7521 23.9378 34.9874C23.9378 34.2844 24.2406 33.6484 24.7302 33.1879C25.2183 32.7286 25.8927 32.4447 26.6367 32.4447C27.3807 32.4447 28.0548 32.7286 28.5432 33.1879C29.0328 33.6484 29.3356 34.2844 29.3356 34.9874C29.3356 35.6283 29.0593 36.2086 28.6129 36.6285C28.1677 37.0472 27.5533 37.306 26.8747 37.306C26.1964 37.306 25.5817 37.0469 25.1365 36.6285C24.6901 36.2086 24.4137 35.6283 24.4137 34.9874C24.4137 34.4082 24.6633 33.8839 25.0668 33.5046C25.4688 33.1264 26.0238 32.8924 26.6367 32.8924C27.2493 32.8924 27.8046 33.1264 28.2066 33.5046C28.6098 33.8839 28.8597 34.4082 28.8597 34.9874C28.8597 35.5047 28.6366 35.9731 28.2766 36.3121C27.9175 36.6497 27.4218 36.8586 26.875 36.8586C26.3278 36.8586 25.8321 36.6497 25.4733 36.3121C25.113 35.9734 24.89 35.5047 24.89 34.9874C24.89 34.532 25.0863 34.1194 25.4033 33.8212C25.7192 33.5242 26.1553 33.3402 26.6367 33.3402C27.1178 33.3402 27.5542 33.5239 27.8701 33.8212C28.1872 34.1197 28.3834 34.532 28.3834 34.9874C28.3834 35.3809 28.2136 35.7375 27.9397 35.9952C27.6671 36.2516 27.2904 36.4105 26.875 36.4105C26.4593 36.4105 26.0826 36.2516 25.8099 35.9952C25.5357 35.7375 25.3662 35.3809 25.3662 34.9874C25.3662 34.6556 25.5092 34.3549 25.7402 34.1379C25.97 33.9217 26.2871 33.7882 26.637 33.7882C26.987 33.7882 27.3037 33.922 27.5335 34.1379C27.7645 34.3552 27.9075 34.6556 27.9075 34.9877C27.9075 35.2574 27.7912 35.502 27.6032 35.6788C27.4166 35.8547 27.1589 35.9634 26.875 35.9634C26.5908 35.9634 26.3333 35.8547 26.1465 35.6791C25.9584 35.5023 25.8422 35.2577 25.8422 34.9877C25.8422 34.7794 25.9319 34.5911 26.0768 34.4545C26.2207 34.3195 26.4188 34.236 26.6367 34.236C26.8549 34.236 27.053 34.3195 27.1966 34.4545C27.3415 34.5908 27.4313 34.7794 27.4313 34.9877C27.4313 35.1342 27.3683 35.2668 27.2663 35.3625C27.1656 35.4569 27.0271 35.5156 26.8747 35.5156C26.7222 35.5156 26.5835 35.4569 26.483 35.3625C26.3811 35.2668 26.3181 35.1342 26.3181 34.9877C26.3181 34.9032 26.3546 34.8266 26.4133 34.7712C26.4709 34.7173 26.5497 34.6837 26.6367 34.6837C26.7234 34.6837 26.8029 34.7173 26.8601 34.7712C26.9188 34.8266 26.9553 34.9029 26.9553 34.9877H26.7943L26.794 34.9883Z" fill="#333333"/>
<path d="M69.6001 20.042C68.7439 20.042 67.9837 19.9372 67.3197 19.7275C66.6731 19.5353 66.1576 19.1246 65.7731 18.4955C65.4061 17.8489 65.2227 16.8965 65.2227 15.6383V7.51247C65.2227 6.5863 65.4061 5.86982 65.7731 5.36305C66.1576 4.85627 66.6818 4.50678 67.3459 4.31455C68.0099 4.10485 68.7701 4 69.6264 4C70.5001 4 71.2515 4.10485 71.8806 4.31455C72.5272 4.52425 73.0252 4.88249 73.3747 5.38926C73.7242 5.89604 73.899 6.60377 73.899 7.51247V10.7104H70.8583V7.38141C70.8583 6.96201 70.8059 6.64746 70.7011 6.43776C70.5962 6.21059 70.4477 6.06205 70.2555 5.99215C70.0807 5.92225 69.871 5.8873 69.6264 5.8873C69.3817 5.8873 69.1633 5.92225 68.971 5.99215C68.7788 6.06205 68.6303 6.21059 68.5254 6.43776C68.4206 6.64746 68.3682 6.96201 68.3682 7.38141V16.7655C68.3682 17.1674 68.4206 17.482 68.5254 17.7091C68.6303 17.9188 68.7788 18.0674 68.971 18.1547C69.1633 18.2246 69.3817 18.2596 69.6264 18.2596C69.871 18.2596 70.0807 18.2246 70.2555 18.1547C70.4477 18.0674 70.5962 17.9188 70.7011 17.7091C70.8059 17.482 70.8583 17.1674 70.8583 16.7655V13.6986H73.899V15.6121C73.899 16.8878 73.7242 17.8489 73.3747 18.4955C73.0252 19.1246 72.5272 19.5353 71.8806 19.7275C71.2515 19.9372 70.4914 20.042 69.6001 20.042Z" fill="#141414"/>
<path d="M75.8246 19.7275V4.23591H78.4983V13.6462L81.7224 4.23591H84.3961V19.7275H81.6962V10.9463L78.4983 19.7275H75.8246Z" fill="#141414"/>
<path d="M86.5758 19.7275V4.23591H94.2036V6.38534H89.564V8.29885H91.8707C92.4474 8.29885 92.9542 8.38622 93.3911 8.56097C93.8454 8.73572 94.2036 9.05027 94.4658 9.50462C94.7454 9.9415 94.8852 10.5706 94.8852 11.3919V15.6646C94.8852 16.5383 94.8065 17.246 94.6493 17.7878C94.492 18.3295 94.2648 18.7402 93.9677 19.0198C93.6707 19.2819 93.3124 19.4654 92.893 19.5702C92.4736 19.6751 91.9931 19.7275 91.4513 19.7275H86.5758ZM90.7698 18.1547C91.0844 18.1547 91.3203 18.0936 91.4775 17.9713C91.6348 17.8489 91.7397 17.6654 91.7921 17.4208C91.862 17.1761 91.8969 16.8965 91.8969 16.582V11.6803C91.8969 11.3832 91.862 11.1211 91.7921 10.8939C91.7397 10.6492 91.6348 10.4657 91.4775 10.3434C91.3203 10.2211 91.0756 10.1599 90.7436 10.1599H89.564V18.1547H90.7698Z" fill="#141414"/>
<path d="M69.3653 38.2681C68.509 38.2681 67.7488 38.1633 67.0848 37.9536C66.4382 37.7613 65.9402 37.3507 65.5907 36.7216C65.2412 36.075 65.0664 35.1139 65.0664 33.8382V32.8946H68.1333V34.9653C68.1333 35.3673 68.1857 35.6818 68.2905 35.909C68.3954 36.1187 68.5439 36.2585 68.7362 36.3284C68.9284 36.3983 69.1381 36.4332 69.3653 36.4332C69.6274 36.4332 69.8458 36.3983 70.0206 36.3284C70.2128 36.2585 70.3526 36.1187 70.44 35.909C70.5448 35.6818 70.5972 35.3673 70.5972 34.9653V31.4267H67.111V29.3821H70.5972V25.6861C70.5972 25.2667 70.5448 24.9522 70.44 24.7425C70.3526 24.5328 70.2128 24.393 70.0206 24.3231C69.8458 24.2357 69.6274 24.192 69.3653 24.192C69.1381 24.192 68.9284 24.227 68.7362 24.2969C68.5439 24.3668 68.3954 24.5066 68.2905 24.7163C68.1857 24.926 68.1333 25.2318 68.1333 25.6337V28.0977H65.0664V25.7385C65.0664 24.8298 65.2412 24.1221 65.5907 23.6153C65.9402 23.1086 66.4382 22.7503 67.0848 22.5406C67.7313 22.3309 68.4915 22.2261 69.3653 22.2261C70.239 22.2261 70.9992 22.3309 71.6457 22.5406C72.3098 22.7503 72.8253 23.1086 73.1923 23.6153C73.5767 24.1221 73.769 24.8298 73.769 25.7385V33.8644C73.769 35.1226 73.5855 36.075 73.2185 36.7216C72.8515 37.3507 72.336 37.7613 71.672 37.9536C71.0079 38.1633 70.239 38.2681 69.3653 38.2681Z" fill="#141414"/>
<path d="M75.7232 37.9536V22.462H78.7639V29.1986H79.7599L82.3812 22.462H85.6578L82.5123 29.9063L85.7364 37.9536H82.4336L79.891 31.217H78.7639V37.9536H75.7232Z" fill="#141414"/>
<path d="M91.025 38.2681C90.1687 38.2681 89.4173 38.1633 88.7707 37.9536C88.1241 37.7613 87.6173 37.3507 87.2504 36.7216C86.9009 36.075 86.7261 35.1226 86.7261 33.8644V25.7385C86.7261 24.8124 86.9009 24.0959 87.2504 23.5891C87.6173 23.0823 88.1241 22.7328 88.7707 22.5406C89.4347 22.3309 90.1949 22.2261 91.0512 22.2261C91.89 22.2261 92.6327 22.3309 93.2792 22.5406C93.9433 22.7503 94.4588 23.1086 94.8258 23.6153C95.2102 24.1221 95.4024 24.8298 95.4024 25.7385V33.8382C95.4024 35.1139 95.2102 36.075 94.8258 36.7216C94.4588 37.3507 93.9433 37.7613 93.2792 37.9536C92.6327 38.1633 91.8812 38.2681 91.025 38.2681ZM91.025 36.4857C91.2871 36.4857 91.5143 36.442 91.7065 36.3546C91.9162 36.2672 92.0735 36.1187 92.1783 35.909C92.3006 35.6818 92.3618 35.376 92.3618 34.9916V25.6075C92.3618 25.223 92.3006 24.926 92.1783 24.7163C92.0735 24.4891 91.9162 24.3318 91.7065 24.2444C91.5143 24.1571 91.2871 24.1134 91.025 24.1134C90.7628 24.1134 90.5357 24.1571 90.3434 24.2444C90.1512 24.3318 89.9939 24.4891 89.8716 24.7163C89.7668 24.926 89.7143 25.223 89.7143 25.6075V34.9916C89.7143 35.376 89.7668 35.6818 89.8716 35.909C89.9939 36.1187 90.1512 36.2672 90.3434 36.3546C90.5357 36.442 90.7628 36.4857 91.025 36.4857Z" fill="#141414"/>
<path d="M68.0461 55.9442V42.6021H65.6345V40.4526H73.4983V42.6021H71.0867V55.9442H68.0461Z" fill="#141414"/>
<path d="M74.8445 55.9442V40.4526H81.9743V42.6021H78.0162V46.7436H81.3714V49.129H78.0162V53.8472H81.9743V55.9442H74.8445Z" fill="#141414"/>
<path d="M82.7603 55.9442L85.0408 47.9756L82.8914 40.4526H85.932L87.2951 45.6165L88.6319 40.4526H91.8298L89.628 47.9756L91.7774 55.9442H88.7367L87.3213 50.7804L85.9844 55.9442H82.7603Z" fill="#141414"/>
</svg>
