<svg width="380" height="120" viewBox="0 0 380 120" fill="none" xmlns="http://www.w3.org/2000/svg">
<path d="M54.7475 100.845C43.2865 100.845 32.9096 96.2128 25.3987 88.7249C17.8872 81.2364 13.2417 70.8919 13.2417 59.466C13.2417 48.0401 17.8878 37.695 25.3987 30.2072C32.9102 22.7187 43.2865 18.0874 54.7475 18.0874V26.6209C45.649 26.6209 37.4124 30.2974 31.4502 36.2407C25.488 42.1846 21.8008 50.396 21.8008 59.4666C21.8008 68.5372 25.4886 76.7486 31.4502 82.6926C37.4124 88.6365 45.649 92.3123 54.7475 92.3123V100.846V100.845Z" fill="#4F4F4F"/>
<path d="M54.1396 102.542C66.0719 102.542 76.8746 97.721 84.6934 89.9261C91.6255 83.0152 96.2127 73.766 97.1644 63.4669H75.6405V54.9334H97.1121C96.0541 44.8474 91.5064 35.7974 84.694 29.0052C76.8752 21.2104 66.0725 16.389 54.1403 16.389V7.85547C68.4351 7.85547 81.3773 13.6323 90.7461 22.9717C100.114 32.3111 105.909 45.2138 105.909 59.4654C105.909 73.7164 100.114 86.6196 90.7461 95.959C81.3773 105.298 68.4351 111.075 54.1403 111.075V102.542L54.1396 102.542Z" fill="#141414"/>
<path fill-rule="evenodd" clip-rule="evenodd" d="M53.8547 35.0292C56.462 40.599 56.3235 46.8123 63.538 55.8266C65.2471 57.9403 69.6435 63.0929 69.3629 70.2108C69.0805 77.379 63.173 84.3093 54.4663 84.3093C45.7595 84.3093 37.7075 79.0586 37.7075 69.107C37.7075 58.7026 49.1369 52.7787 51.1338 45.2805C52.8423 38.8655 52.4554 36.3849 52.3503 34.9711C52.2349 33.4181 53.183 33.5942 53.8547 35.0292Z" fill="#141414"/>
<path d="M53.4752 69.9765C53.4752 69.8984 53.4412 69.8276 53.3866 69.7761C53.3295 69.7222 53.2493 69.6889 53.16 69.6889C53.0714 69.6889 52.9912 69.7222 52.9341 69.7761C52.8794 69.8276 52.8454 69.8984 52.8454 69.9765C52.8454 70.1782 52.9323 70.361 53.0732 70.4936C53.2159 70.6286 53.4151 70.7122 53.6356 70.7122C53.856 70.7122 54.0546 70.6286 54.1974 70.4942C54.3377 70.3616 54.4251 70.1782 54.4251 69.9765C54.4251 69.6514 54.2848 69.3565 54.0583 69.1428C53.8293 68.9267 53.5117 68.7934 53.1606 68.7934C52.809 68.7934 52.4914 68.9266 52.263 69.1422C52.0365 69.3559 51.8962 69.6508 51.8962 69.9765C51.8962 70.4258 52.0893 70.8327 52.4021 71.1269C52.7173 71.4236 53.1534 71.6077 53.6362 71.6077C54.119 71.6077 54.5551 71.4236 54.8697 71.1269C55.1819 70.8327 55.375 70.4258 55.375 69.9765C55.375 69.4038 55.1284 68.8849 54.73 68.5095C54.3292 68.1317 53.7741 67.898 53.16 67.898C52.5466 67.898 51.9909 68.1317 51.5901 68.5095C51.1917 68.8849 50.9451 69.4038 50.9451 69.9759C50.9451 70.6722 51.2451 71.3031 51.7292 71.759C52.2162 72.218 52.8904 72.502 53.635 72.502C54.3796 72.502 55.0537 72.218 55.5408 71.759C56.0248 71.3025 56.3249 70.6716 56.3249 69.9759C56.3249 69.1561 55.972 68.4138 55.4017 67.8762C54.8284 67.3361 54.0358 67.0019 53.16 67.0019C52.2843 67.0019 51.4911 67.3361 50.9184 67.8762C50.3481 68.4138 49.9952 69.1561 49.9952 69.9759C49.9952 70.9193 50.4015 71.7742 51.0574 72.393C51.7164 73.0142 52.628 73.3981 53.635 73.3981C54.6419 73.3981 55.5535 73.0136 56.2125 72.393C56.8684 71.7742 57.2747 70.9199 57.2747 69.9759C57.2747 68.9085 56.8156 67.9422 56.0734 67.2428C55.3288 66.5405 54.2982 66.1064 53.16 66.1064C52.0219 66.1064 50.9913 66.5405 50.2467 67.2428C49.5045 67.9422 49.0454 68.9091 49.0454 69.9759C49.0454 71.1669 49.5579 72.2452 50.3863 73.0257C51.2172 73.8086 52.3663 74.2936 53.6356 74.2936C54.9049 74.2936 56.054 73.8092 56.8848 73.0257C57.7132 72.2452 58.2252 71.1663 58.2252 69.9759C58.2252 68.6615 57.6598 67.4711 56.7451 66.6095C55.8281 65.7455 54.5606 65.2109 53.16 65.2109C51.7595 65.2109 50.4914 65.7455 49.5749 66.6095C48.6609 67.4711 48.0949 68.6615 48.0949 69.9759C48.0949 71.4139 48.7137 72.7163 49.714 73.659C50.7167 74.6042 52.1033 75.1891 53.6356 75.1891C55.1673 75.1891 56.5538 74.6042 57.5571 73.659C58.5574 72.7163 59.1763 71.4139 59.1763 69.9759C59.1763 68.4144 58.5046 67 57.4181 65.9762C56.3291 64.9499 54.8241 64.3154 53.1606 64.3154C51.4972 64.3154 49.9922 64.9499 48.9032 65.9762C47.8167 67 47.145 68.4138 47.145 69.9759C47.145 71.6616 47.8702 73.1874 49.0423 74.2924C50.2169 75.3992 51.8415 76.0846 53.6356 76.0846C55.4296 76.0846 57.0537 75.3998 58.2288 74.2924C59.401 73.188 60.1262 71.6616 60.1262 69.9759C60.1262 68.1668 59.3476 66.529 58.0898 65.3435C56.8289 64.1549 55.0859 63.4199 53.1606 63.4199C51.2348 63.4199 49.4924 64.1549 48.2315 65.3429C46.9737 66.529 46.1951 68.1668 46.1951 69.9759C46.1951 71.9086 47.0266 73.6584 48.3706 74.9257C49.7177 76.1947 51.5791 76.98 53.6356 76.98C55.692 76.98 57.5535 76.1947 58.9006 74.9257C60.2446 73.659 61.076 71.9086 61.076 69.9759C61.076 67.9197 60.1911 66.0579 58.7615 64.7101C57.3288 63.3599 55.3483 62.5244 53.1606 62.5244C50.973 62.5244 48.9925 63.3599 47.5598 64.7101C46.1295 66.0579 45.2453 67.9197 45.2453 69.9759C45.2453 72.1562 46.183 74.1301 47.6995 75.559C49.2184 76.9903 51.3174 77.8755 53.6368 77.8755C55.9562 77.8755 58.0551 76.9903 59.5735 75.5584C61.0894 74.1295 62.0271 72.1556 62.0271 69.9759C62.0271 67.6721 61.0359 65.5863 59.4344 64.0768C57.8298 62.5643 55.6118 61.6289 53.1619 61.6289C50.7113 61.6289 48.4933 62.5643 46.8893 64.0768C45.2872 65.5869 44.2966 67.6727 44.2966 69.9759C44.2966 72.4033 45.3406 74.6011 47.0284 76.1917C48.7192 77.7847 51.0556 78.7704 53.6374 78.7704C56.2186 78.7704 58.5556 77.7847 60.2458 76.1917C61.9336 74.6011 62.9776 72.4027 62.9776 69.9759H63.2989C63.2989 72.4947 62.216 74.7743 60.465 76.4242C58.7171 78.0717 56.3024 79.0907 53.6368 79.0907C50.9706 79.0907 48.5565 78.0717 46.8079 76.4242C45.0576 74.7743 43.9741 72.4941 43.9741 69.9759C43.9741 67.5813 45.0042 65.4131 46.6689 63.8443C48.3311 62.278 50.6268 61.3086 53.1613 61.3086C55.6963 61.3086 57.9914 62.2773 59.6536 63.8443C61.3183 65.4131 62.3484 67.5813 62.3484 69.9759C62.3484 72.2471 61.3718 74.3033 59.7927 75.7909C58.2167 77.2761 56.0394 78.1952 53.6362 78.1952C51.233 78.1952 49.0557 77.2761 47.4796 75.7909C45.9006 74.3026 44.924 72.2465 44.924 69.9753C44.924 67.8277 45.8477 65.8835 47.3406 64.477C48.831 63.0729 50.8892 62.2035 53.1613 62.2035C55.4333 62.2035 57.4915 63.0723 58.9819 64.477C60.4748 65.8841 61.3979 67.8283 61.3979 69.9753C61.3979 71.9994 60.5276 73.8316 59.121 75.1576C57.7169 76.4811 55.7776 77.2997 53.6368 77.2997C51.4953 77.2997 49.5561 76.4811 48.152 75.1576C46.7454 73.8316 45.8751 71.9994 45.8751 69.9753C45.8751 68.0754 46.6925 66.3552 48.0129 65.1098C49.3314 63.8673 51.1516 63.099 53.1619 63.099C55.1715 63.099 56.9923 63.8673 58.3108 65.1098C59.6318 66.3546 60.4486 68.0747 60.4486 69.9747C60.4486 71.7512 59.6846 73.3599 58.4499 74.5236C57.2176 75.6849 55.5159 76.4036 53.6374 76.4036C51.7583 76.4036 50.0566 75.6849 48.8243 74.5236C47.5896 73.3599 46.8256 71.7512 46.8256 69.9747C46.8256 68.3218 47.5367 66.8257 48.6852 65.7425C49.8312 64.6623 51.4146 63.9939 53.1619 63.9939C54.9098 63.9939 56.4925 64.6623 57.6385 65.7425C58.7876 66.8257 59.4982 68.3218 59.4982 69.9747C59.4982 71.5041 58.8404 72.8883 57.7776 73.8903C56.7172 74.89 55.2529 75.5081 53.6368 75.5081C52.0207 75.5081 50.5558 74.89 49.4954 73.8903C48.4326 72.8889 47.7748 71.5041 47.7748 69.9747C47.7748 68.5688 48.3791 67.2967 49.3563 66.3758C50.3305 65.4573 51.6763 64.8894 53.1613 64.8894C54.6462 64.8894 55.9914 65.4573 56.9662 66.3758C57.9434 67.2967 58.5477 68.5688 58.5477 69.9747C58.5477 71.2565 57.9962 72.4172 57.1053 73.257C56.2167 74.0944 54.9905 74.612 53.6362 74.612C52.2824 74.612 51.0556 74.0938 50.1671 73.257C49.2761 72.4172 48.7247 71.2565 48.7247 69.9747C48.7247 68.8165 49.2227 67.7678 50.028 67.0091C50.8303 66.2529 51.9381 65.7849 53.1613 65.7849C54.3838 65.7849 55.4922 66.2529 56.2945 67.0091C57.0992 67.7678 57.5978 68.8165 57.5978 69.9747C57.5978 71.0095 57.1526 71.9461 56.4342 72.6243C55.7175 73.2994 54.7282 73.7172 53.6368 73.7172C52.5448 73.7172 51.5555 73.2994 50.8394 72.6243C50.1203 71.9467 49.6752 71.0095 49.6752 69.9747C49.6752 69.0641 50.0669 68.2388 50.6997 67.6424C51.3301 67.0485 52.2005 66.6803 53.1613 66.6803C54.1214 66.6803 54.9924 67.0479 55.6228 67.6424C56.2556 68.2394 56.6473 69.0641 56.6473 69.9747C56.6473 70.7618 56.3085 71.4751 55.7619 71.9903C55.2177 72.5032 54.4658 72.8211 53.6368 72.8211C52.8072 72.8211 52.0553 72.5032 51.5111 71.9903C50.9639 71.4751 50.6256 70.7618 50.6256 69.9747C50.6256 69.3111 50.9111 68.7099 51.3721 68.2758C51.8306 67.8435 52.4634 67.5764 53.1619 67.5764C53.8603 67.5764 54.4925 67.8441 54.9511 68.2758C55.412 68.7105 55.6975 69.3111 55.6975 69.9753C55.6975 70.5148 55.4655 71.004 55.0901 71.3576C54.7178 71.7094 54.2034 71.9268 53.6368 71.9268C53.0695 71.9268 52.5557 71.7094 52.1828 71.3582C51.8075 71.0046 51.5755 70.5154 51.5755 69.9753C51.5755 69.5588 51.7547 69.1822 52.0438 68.9091C52.331 68.6391 52.7264 68.4719 53.1613 68.4719C53.5967 68.4719 53.9921 68.6391 54.2787 68.9091C54.5678 69.1816 54.747 69.5588 54.747 69.9753C54.747 70.2684 54.6213 70.5336 54.4178 70.7249C54.2168 70.9138 53.9405 71.0313 53.6362 71.0313C53.3319 71.0313 53.055 70.9138 52.8545 70.7249C52.6511 70.5336 52.5254 70.2684 52.5254 69.9753C52.5254 69.8064 52.5983 69.6532 52.7155 69.5424C52.8303 69.4346 52.9876 69.3674 53.1613 69.3674C53.3343 69.3674 53.4929 69.4346 53.607 69.5424C53.7243 69.6532 53.7971 69.8058 53.7971 69.9753H53.4759L53.4752 69.9765Z" fill="#4F4F4F"/>
<path d="M135.114 74.576C133.546 74.576 132.154 74.384 130.938 74C129.754 73.648 128.81 72.896 128.106 71.744C127.434 70.56 127.098 68.816 127.098 66.512V51.632C127.098 49.936 127.434 48.624 128.106 47.696C128.81 46.768 129.77 46.128 130.986 45.776C132.202 45.392 133.594 45.2 135.162 45.2C136.762 45.2 138.138 45.392 139.29 45.776C140.474 46.16 141.386 46.816 142.026 47.744C142.666 48.672 142.986 49.968 142.986 51.632V57.488H137.418V51.392C137.418 50.624 137.322 50.048 137.13 49.664C136.938 49.248 136.666 48.976 136.314 48.848C135.994 48.72 135.61 48.656 135.162 48.656C134.714 48.656 134.314 48.72 133.962 48.848C133.61 48.976 133.338 49.248 133.146 49.664C132.954 50.048 132.858 50.624 132.858 51.392V68.576C132.858 69.312 132.954 69.888 133.146 70.304C133.338 70.688 133.61 70.96 133.962 71.12C134.314 71.248 134.714 71.312 135.162 71.312C135.61 71.312 135.994 71.248 136.314 71.12C136.666 70.96 136.938 70.688 137.13 70.304C137.322 69.888 137.418 69.312 137.418 68.576V62.96H142.986V66.464C142.986 68.8 142.666 70.56 142.026 71.744C141.386 72.896 140.474 73.648 139.29 74C138.138 74.384 136.746 74.576 135.114 74.576ZM146.513 74V45.632H151.409V62.864L157.313 45.632H162.209V74H157.265V57.92L151.409 74H146.513ZM166.2 74V45.632H180.168V49.568H171.672V53.072H175.896C176.952 53.072 177.88 53.232 178.68 53.552C179.512 53.872 180.168 54.448 180.648 55.28C181.16 56.08 181.416 57.232 181.416 58.736V66.56C181.416 68.16 181.272 69.456 180.984 70.448C180.696 71.44 180.28 72.192 179.736 72.704C179.192 73.184 178.536 73.52 177.768 73.712C177 73.904 176.12 74 175.128 74H166.2ZM173.88 71.12C174.456 71.12 174.888 71.008 175.176 70.784C175.464 70.56 175.656 70.224 175.752 69.776C175.88 69.328 175.944 68.816 175.944 68.24V59.264C175.944 58.72 175.88 58.24 175.752 57.824C175.656 57.376 175.464 57.04 175.176 56.816C174.888 56.592 174.44 56.48 173.832 56.48H171.672V71.12H173.88ZM192.057 74.576C190.489 74.576 189.097 74.384 187.881 74C186.697 73.648 185.785 72.896 185.145 71.744C184.505 70.56 184.185 68.8 184.185 66.464V64.736H189.801V68.528C189.801 69.264 189.897 69.84 190.089 70.256C190.281 70.64 190.553 70.896 190.905 71.024C191.257 71.152 191.641 71.216 192.057 71.216C192.537 71.216 192.937 71.152 193.257 71.024C193.609 70.896 193.865 70.64 194.025 70.256C194.217 69.84 194.313 69.264 194.313 68.528V62.048H187.929V58.304H194.313V51.536C194.313 50.768 194.217 50.192 194.025 49.808C193.865 49.424 193.609 49.168 193.257 49.04C192.937 48.88 192.537 48.8 192.057 48.8C191.641 48.8 191.257 48.864 190.905 48.992C190.553 49.12 190.281 49.376 190.089 49.76C189.897 50.144 189.801 50.704 189.801 51.44V55.952H184.185V51.632C184.185 49.968 184.505 48.672 185.145 47.744C185.785 46.816 186.697 46.16 187.881 45.776C189.065 45.392 190.457 45.2 192.057 45.2C193.657 45.2 195.049 45.392 196.233 45.776C197.449 46.16 198.393 46.816 199.065 47.744C199.769 48.672 200.121 49.968 200.121 51.632V66.512C200.121 68.816 199.785 70.56 199.113 71.744C198.441 72.896 197.497 73.648 196.281 74C195.065 74.384 193.657 74.576 192.057 74.576ZM203.7 74V45.632H209.268V57.968H211.092L215.892 45.632H221.892L216.132 59.264L222.036 74H215.988L211.332 61.664H209.268V74H203.7ZM231.72 74.576C230.152 74.576 228.776 74.384 227.592 74C226.408 73.648 225.48 72.896 224.808 71.744C224.168 70.56 223.848 68.816 223.848 66.512V51.632C223.848 49.936 224.168 48.624 224.808 47.696C225.48 46.768 226.408 46.128 227.592 45.776C228.808 45.392 230.2 45.2 231.768 45.2C233.304 45.2 234.664 45.392 235.848 45.776C237.064 46.16 238.008 46.816 238.68 47.744C239.384 48.672 239.736 49.968 239.736 51.632V66.464C239.736 68.8 239.384 70.56 238.68 71.744C238.008 72.896 237.064 73.648 235.848 74C234.664 74.384 233.288 74.576 231.72 74.576ZM231.72 71.312C232.2 71.312 232.616 71.232 232.968 71.072C233.352 70.912 233.64 70.64 233.832 70.256C234.056 69.84 234.168 69.28 234.168 68.576V51.392C234.168 50.688 234.056 50.144 233.832 49.76C233.64 49.344 233.352 49.056 232.968 48.896C232.616 48.736 232.2 48.656 231.72 48.656C231.24 48.656 230.824 48.736 230.472 48.896C230.12 49.056 229.832 49.344 229.608 49.76C229.416 50.144 229.32 50.688 229.32 51.392V68.576C229.32 69.28 229.416 69.84 229.608 70.256C229.832 70.64 230.12 70.912 230.472 71.072C230.824 71.232 231.24 71.312 231.72 71.312ZM246.282 74V49.568H241.866V45.632H256.266V49.568H251.85V74H246.282ZM258.731 74V45.632H271.787V49.568H264.539V57.152H270.683V61.52H264.539V70.16H271.787V74H258.731ZM273.227 74L277.403 59.408L273.467 45.632H279.035L281.531 55.088L283.979 45.632H289.835L285.803 59.408L289.739 74H284.171L281.579 64.544L279.131 74H273.227ZM292.341 74V45.632H297.909V57.248H302.565V45.632H308.133V74H302.565V61.376H297.909V74H292.341ZM312.169 74V45.632H317.065V62.864L322.969 45.632H327.865V74H322.921V57.92L317.065 74H312.169ZM331.856 74V45.632H337.424V57.968H339.248L344.048 45.632H350.048L344.288 59.264L350.192 74H344.144L339.488 61.664H337.424V74H331.856ZM350.709 74L355.797 45.632H363.765L368.757 74H362.517L361.653 68.768H357.525L356.709 74H350.709ZM357.621 65.984H361.605L359.637 50.576L357.621 65.984Z" fill="#333333"/>
</svg>
