<svg width="40" height="41" viewBox="0 0 40 41" fill="none" xmlns="http://www.w3.org/2000/svg">
<path d="M20 0.5C9.158 0.5 0 9.658 0 20.5C0 31.342 9.158 40.5 20 40.5C30.842 40.5 40 31.342 40 20.5C40 9.658 30.842 0.5 20 0.5ZM20 10.5C23.454 10.5 26 13.044 26 16.5C26 19.956 23.454 22.5 20 22.5C16.548 22.5 14 19.956 14 16.5C14 13.044 16.548 10.5 20 10.5ZM9.788 30.044C11.582 27.404 14.574 25.644 18 25.644H22C25.428 25.644 28.418 27.404 30.212 30.044C27.656 32.78 24.03 34.5 20 34.5C15.97 34.5 12.344 32.78 9.788 30.044Z" fill="#E0E0E0"/>
</svg>
