<svg width="78" height="40" viewBox="0 0 78 40" fill="none" xmlns="http://www.w3.org/2000/svg">
<path d="M23.9244 18.603L25.0045 17.5021L25.0015 18.4882L24.0334 19.8339L23.9244 18.603Z" fill="url(#paint0_linear_1687_280)" stroke="#828282" stroke-width="0.00998722"/>
<path d="M25.8989 18.1855H29.1802C29.4662 18.1855 29.684 18.2536 29.8474 18.3897C29.9972 18.5123 30.0789 18.7029 30.0789 18.948C30.0789 19.2067 29.9971 19.3973 29.8338 19.5198C29.6704 19.656 29.4389 19.724 29.1394 19.724H25.8989V18.1855V18.1855ZM29.2347 20.5546C29.7657 20.5546 30.1878 20.4048 30.501 20.1053C30.8277 19.8058 30.9911 19.4109 30.9911 18.9344C30.9911 18.4306 30.8277 18.0493 30.501 17.777C30.1742 17.4911 29.7248 17.355 29.1394 17.355H25.0139V23.0326H25.8989V20.5546H29.2347V20.5546ZM33.9572 18.1855H37.2386C37.5245 18.1855 37.7423 18.2536 37.9057 18.3897C38.0555 18.5123 38.1371 18.7029 38.1371 18.948C38.1371 19.2067 38.0555 19.3973 37.8921 19.5198C37.7287 19.656 37.4972 19.724 37.1977 19.724H33.9572V18.1855V18.1855ZM37.293 20.5546C37.824 20.5546 38.2461 20.4048 38.5592 20.1053C38.886 19.8058 39.0494 19.4109 39.0494 18.9344C39.0494 18.4306 38.886 18.0493 38.5592 17.777C38.2325 17.4911 37.7832 17.355 37.1977 17.355H33.0722V23.0326H33.9572V20.5546H37.293V20.5546ZM46.2328 23.0326V22.2157H42.012V17.355H41.127V23.0326H46.2328H46.2328ZM49.3104 23.0326V20.1189L51.9109 17.355H50.7264L48.8747 19.3701L46.9958 17.355H45.8521L48.439 20.1325V23.0326H49.3104V23.0326Z" stroke="#828282" stroke-width="0.2" stroke-miterlimit="10"/>
<path d="M30.4939 20.1061L30.4938 20.1062C30.1818 20.4046 29.7611 20.5541 29.2311 20.5541H25.8953V20.5591H25.8903V23.0321H25.0152V17.3645H29.1357C29.7205 17.3645 30.1684 17.5004 30.494 17.7853L30.4941 17.7854C30.8195 18.0566 30.9825 18.4363 30.9825 18.9389C30.9825 19.4141 30.8196 19.8076 30.4939 20.1061ZM38.5573 20.1061L38.5572 20.1062C38.2452 20.4046 37.8244 20.5541 37.2944 20.5541H33.9586V20.5591H33.9536V23.0321H33.0786V17.3645H37.1991C37.7838 17.3645 38.2318 17.5004 38.5574 17.7853L38.5575 17.7854C38.8829 18.0566 39.0458 18.4363 39.0458 18.9389C39.0458 19.4141 38.8829 19.8076 38.5573 20.1061ZM49.3084 20.12L49.3071 20.1187V20.1234V23.0321H48.4457V20.137H48.4475L48.4443 20.1336L45.8652 17.3645H46.9953L48.8727 19.378L48.8764 19.3746L48.88 19.3712L48.9237 19.3304L50.7303 17.3645H51.9011L49.3084 20.12ZM29.1766 18.185H25.8953V18.19H25.8903V19.7286H25.8953V19.7336H29.1357C29.4359 19.7336 29.6687 19.6654 29.8332 19.5282C29.9981 19.4045 30.0802 19.2123 30.0802 18.9525C30.0802 18.7063 29.9981 18.5141 29.847 18.3904C29.6824 18.2533 29.4633 18.185 29.1766 18.185ZM37.24 18.185H33.9586V18.19H33.9536V19.7286H33.9586V19.7336H37.1991C37.4993 19.7336 37.732 19.6654 37.8966 19.5282C38.0615 19.4045 38.1436 19.2123 38.1436 18.9525C38.1436 18.7063 38.0615 18.5141 37.9103 18.3904L37.9071 18.3943L37.9103 18.3904C37.7458 18.2533 37.5267 18.185 37.24 18.185ZM46.2243 22.2252V23.0321H41.1285V17.3645H42.0035V22.2202H42.0085V22.2252H46.2243Z" fill="#828282" stroke="#828282" stroke-width="0.00998722"/>
<path d="M24.8356 33.2846L24.8358 33.2847C25.0005 33.422 25.0827 33.6141 25.0827 33.8604C25.0827 34.1202 25.0006 34.3125 24.8357 34.4362M24.8356 33.2846L24.8326 34.4323M24.8356 33.2846C24.6711 33.1612 24.4385 33.093 24.1383 33.093H21.1156V33.098M24.8356 33.2846L21.1156 33.098M24.8357 34.4362C24.8357 34.4362 24.8357 34.4363 24.8356 34.4363L24.8326 34.4323M24.8357 34.4362C24.8358 34.4362 24.8358 34.4362 24.8358 34.4361L24.8326 34.4323M24.8357 34.4362C24.6712 34.5733 24.4384 34.6415 24.1383 34.6415H21.1156V34.6365M24.8326 34.4323C24.6693 34.5685 24.4378 34.6365 24.1383 34.6365H21.1206H21.1156M21.1156 34.6365H21.1106V33.098V33.098H21.1156M21.1156 34.6365V34.6315V33.098M5.281 33.8604L5.27689 33.8633L5.27601 33.8639V37.9401H4.40099V32.2724H5.12862L7.45537 35.5925L7.45946 35.5896L7.46355 35.5867L7.47144 35.5812L9.79029 32.2724H10.5179V37.9401H9.6429V33.8604H9.63791H9.63292H9.63184L7.45946 37.0104L5.28511 33.8576L5.281 33.8604ZM15.3669 33.5745L15.3624 33.5768L15.3593 33.5784L14.246 35.7507L14.2504 35.753L14.2549 35.7553L14.2602 35.758H16.4697V35.753V35.748V35.7419L15.3714 33.5723L15.3669 33.5745ZM13.8648 36.4995L13.1309 37.9401H12.2027L15.0841 32.2724H15.6362L18.5448 37.9401H17.6029L16.8691 36.4995L16.8744 36.4968H16.8646H13.8692V36.4908L13.8648 36.4995ZM23.5978 35.4643L23.6013 35.462H23.5936H21.1156V35.467H21.1106V37.9401H20.2356V32.286H24.1383C24.7094 32.286 25.1709 32.422 25.4965 32.7069L25.4966 32.707C25.822 32.9782 25.985 33.3715 25.985 33.8604C25.985 34.2677 25.8492 34.6205 25.5914 34.9055L25.5913 34.9056C25.3334 35.2042 25.0078 35.3806 24.5868 35.4485L24.5875 35.4534L24.5883 35.4584L24.5896 35.4659L26.1579 37.9401H25.203L23.5978 35.4643ZM32.9873 33.9693L32.9836 33.9727L32.9824 33.9739V37.9401H32.121V32.2724H32.5767L36.1833 36.2601L36.187 36.2567L36.1907 36.2534L36.192 36.2522V32.2724H37.0534V37.9401H36.5976L32.991 33.966L32.9873 33.9693ZM29.3206 32.2588V37.9401H28.432V32.2588H29.3206ZM45.3838 37.1331V37.9401H39.8251V32.2724H45.1387V33.093H40.7051V33.098H40.7001V34.514H40.7051V34.5189H43.6138V35.3259H40.7051V35.3309H40.7001V37.1281H40.7051V37.1331H45.3838Z" fill="#828282" stroke="#828282" stroke-width="0.00998722"/>
<path d="M5.28103 37.9491V33.8645L7.45943 37.0232L9.63788 33.8645V37.9491H10.5229V32.2715H9.78767L7.45943 35.5936L5.13122 32.2715H4.396V37.9491H5.28103V37.9491ZM15.3645 33.5786L16.4673 35.757H14.248L15.3645 33.5786ZM13.1315 37.9491L13.8668 36.5058H16.8622L17.5974 37.9491H18.5505L15.6368 32.2715H15.0786L12.1921 37.9491H13.1316H13.1315ZM21.1188 33.102H24.1414C24.4409 33.102 24.6724 33.1701 24.8358 33.2926C24.9991 33.4288 25.0808 33.6194 25.0808 33.8645C25.0808 34.1232 24.9991 34.3138 24.8358 34.4363C24.6724 34.5725 24.4409 34.6406 24.1414 34.6406H21.1188V33.102V33.102ZM23.5968 35.4711L25.2034 37.9491H26.1701L24.5907 35.4575C25.0127 35.3894 25.3395 35.2124 25.5982 34.9129C25.8569 34.627 25.9931 34.2729 25.9931 33.8645C25.9931 33.3743 25.8297 32.9795 25.5029 32.7072C25.1761 32.4212 24.7132 32.2851 24.1414 32.2851H20.2337V37.9491H21.1188V35.4711H23.5968ZM29.3218 37.9491V32.2578H28.4232V37.9491H29.3218ZM32.9859 37.9491V33.9734L36.5939 37.9491H37.0568V32.2715H36.1855V36.2608L32.5774 32.2715H32.1144V37.9491H32.9859ZM45.385 37.9491V37.1321H40.7013V35.3349H43.615V34.518H40.7013V33.102H45.1399V32.2715H39.8163V37.9491H45.385H45.385Z" stroke="#828282" stroke-width="0.2" stroke-miterlimit="10"/>
<path d="M77.6482 22.5788C77.6471 22.5801 77.6459 22.5816 77.6447 22.5833C77.6394 22.5902 77.6329 22.5994 77.625 22.6109C77.6092 22.6337 77.5882 22.6653 77.562 22.7051C77.5523 22.7198 77.5419 22.7356 77.5307 22.7525C77.4216 22.9181 77.2444 23.1873 77.0009 23.5288M77.6482 22.5788L54.638 20.9227C54.706 20.7692 54.7682 20.6303 54.8234 20.5071C54.8887 20.3613 54.944 20.2376 54.9874 20.1382C55.0275 20.0465 55.0574 19.9755 55.0755 19.9267C55.0846 19.9023 55.0908 19.8833 55.0938 19.8701C55.0953 19.8635 55.0961 19.858 55.096 19.8538C55.096 19.8531 55.0959 19.8524 55.0958 19.8517C55.0956 19.8503 55.0953 19.8489 55.0947 19.8477C55.0938 19.8457 55.0922 19.8438 55.0897 19.843C55.0873 19.8422 55.085 19.8427 55.0832 19.8434C55.0813 19.8442 55.0795 19.8454 55.0778 19.8469C55.0745 19.8498 55.0707 19.8541 55.0665 19.8598C55.0581 19.8712 55.0476 19.8885 55.0351 19.9115C55.0101 19.9576 54.9769 20.027 54.9371 20.1183C54.8574 20.301 54.7507 20.5716 54.6287 20.919C54.5083 21.1893 54.3699 21.5048 54.2202 21.8578C55.5571 16.5684 58.8058 10.3739 63.8745 4.18413L63.8707 4.18097L63.8668 4.17781L63.8621 4.17393C55.9871 2.4141 45.6635 1.23471 33.9169 2.9436C31.0222 3.3652 28.3 3.92397 25.7603 4.56847L25.7602 4.56848L24.0285 5.02534L24.0285 5.02536C22.6417 5.40661 21.3195 5.81005 20.0637 6.2246L20.0652 6.22934L20.0668 6.23408L20.0772 6.26565L21.7608 9.75267C21.1401 10.578 19.7153 12.5146 18.6416 14.476C18.1042 15.4576 17.6546 16.4458 17.4378 17.3042C17.2211 18.1622 17.2366 18.8922 17.6318 19.3558C17.8937 19.6627 18.2831 19.8073 18.717 19.8715C19.1505 19.9357 19.6291 19.9199 20.0704 19.9053L20.0714 19.9052C21.6793 19.8529 23.0107 19.2402 24.0248 18.5351V19.8458C22.7927 21.1868 21.2448 22.7633 19.737 24.0047C18.9829 24.6256 18.2389 25.1626 17.5496 25.5443C16.8602 25.9261 16.226 26.1523 15.6912 26.1523C14.8413 26.1523 14.2506 25.9751 13.8646 25.612C13.4787 25.2489 13.2966 24.699 13.2662 23.9515C13.2358 23.2039 13.3571 22.2595 13.5771 21.1082C13.7788 20.0528 14.0633 18.824 14.3897 17.4141C14.4194 17.2859 14.4495 17.1562 14.4798 17.0249L14.4749 17.0238L14.4701 17.0227L14.4697 17.0226L14.4708 17.0211C14.469 17.0237 14.4633 17.0305 14.454 17.0406L14.4539 17.0408L14.4473 17.0486C12.1755 19.7485 10.3371 21.9332 8.77451 23.4128C7.99246 24.1532 7.27969 24.7168 6.6164 25.0799C5.95314 25.443 5.33965 25.6055 4.75603 25.5441C3.57031 25.4193 2.33696 24.3532 1.42385 22.8478C0.510914 21.3426 -0.0810296 19.3996 0.0152185 17.5233C0.221844 13.5129 3.5486 10.3034 7.24276 7.94037C10.9366 5.57754 14.9961 4.0621 16.6651 3.43932C19.271 2.46622 21.4863 1.93476 24.0306 1.51423L25.7622 1.249C26.8554 1.09342 28.0283 0.94383 29.3258 0.778334L29.4233 0.765901C40.2464 -0.612703 48.8126 0.207107 52.7446 0.702373C56.5702 1.18524 61.6271 2.0691 67.446 3.80123C65.3929 6.0589 63.2416 8.99334 61.5545 12.6991C61.0991 13.6991 59.6556 16.8699 58.8546 20.33C58.4541 22.06 58.2141 23.8627 58.3386 25.5026C58.4631 27.1425 58.9522 28.6202 60.0103 29.6997C61.4205 31.1382 63.4544 31.4742 64.1848 31.5549C65.0272 31.6478 66.0548 31.4658 67.1707 31.0724C68.2866 30.6791 69.4912 30.0743 70.6879 29.3212C73.0805 27.8157 75.4418 25.7173 76.9994 23.5309M77.6482 22.5788C77.6481 22.5789 77.6481 22.579 77.6481 22.579C77.6429 22.5935 77.6324 22.6181 77.6165 22.6535C75.8476 26.6007 73.8101 30.0713 71.4966 32.6073C69.1832 35.1432 66.5941 36.7441 63.722 36.9528C60.8691 37.1595 57.4549 35.8922 55.5368 33.5548C53.7106 31.3285 53.1366 28.0009 53.7708 24.0251C54.0571 22.7195 54.3818 21.6519 54.6379 20.9229L77.6482 22.5788ZM77.0009 23.5288L76.9968 23.5259L76.9968 23.5309H76.9994M77.0009 23.5288C77.0004 23.5295 76.9999 23.5302 76.9994 23.5309M77.0009 23.5288L77.0038 23.5309H76.9994M4.63068 21.0581L4.63071 21.0581C4.81449 21.1805 5.0875 21.2164 5.43431 21.1659C5.78125 21.1154 6.20278 20.9785 6.68438 20.7543C7.64759 20.3059 8.85177 19.5082 10.1811 18.3537C12.8397 16.0445 15.9993 12.3076 18.7333 7.08183L18.7289 7.07951L18.7244 7.0772L18.7229 7.07637C18.0948 7.30407 15.2423 8.35654 12.2224 9.89912C10.709 10.6722 9.15348 11.5684 7.81479 12.5456C6.47618 13.5228 5.35404 14.5812 4.7078 15.6789C4.44157 16.1312 4.01242 16.8603 3.74635 17.6662C3.48031 18.472 3.37698 19.3556 3.76363 20.1163C4.03251 20.6459 4.47222 20.9511 4.63068 21.0581Z" fill="url(#paint1_linear_1687_280)" stroke="#828282" stroke-width="0.00998722"/>
<path d="M67.3896 37.1723C66.73 37.7832 63.9924 40.1345 59.9203 39.9884C59.6285 39.9778 58.5029 39.9244 57.1773 39.5486C55.8517 39.1728 54.3265 38.4747 53.2351 37.1753C51.5775 35.2017 51.4308 32.3068 51.8933 29.4452C52.3508 26.6144 53.4043 23.8175 54.1791 21.9803C54.0059 22.6777 53.8667 23.36 53.7609 24.0231C53.5492 24.9904 53.3575 26.0899 53.2314 27.2781C53.0156 29.3016 53.1286 30.2642 53.17 30.5823C53.3091 31.6343 53.6259 34.0077 55.5574 36.0907C57.6544 38.3531 60.2992 38.7669 60.8826 38.8456C64.2589 39.2989 66.7404 37.6445 67.3896 37.1723Z" fill="url(#paint2_linear_1687_280)" stroke="#828282" stroke-width="0.00998722"/>
<path d="M53.799 23.8512C53.9041 23.2233 54.0389 22.5788 54.204 21.921C54.3434 21.591 54.4736 21.2926 54.5891 21.032C54.3511 21.7231 54.0612 22.6877 53.799 23.8512Z" fill="url(#paint3_linear_1687_280)" stroke="#828282" stroke-width="0.00998722"/>
<path d="M54.8138 20.5028C54.7732 20.5934 54.7288 20.6926 54.681 20.7999C54.7849 20.5109 54.8757 20.2825 54.9457 20.1221C54.9855 20.0309 55.0185 19.9618 55.0433 19.9161C55.0558 19.8932 55.066 19.8763 55.074 19.8655C55.078 19.8601 55.0813 19.8564 55.0838 19.8543C55.0851 19.8532 55.0859 19.8527 55.0865 19.8525C55.0866 19.8524 55.0867 19.8524 55.0867 19.8524C55.0867 19.8524 55.0865 19.8524 55.0861 19.8523L55.0877 19.8476L55.0861 19.8523C55.0855 19.8521 55.0852 19.8517 55.0851 19.8516C55.0851 19.8516 55.0851 19.8516 55.0851 19.8516C55.0852 19.8518 55.0854 19.8525 55.0855 19.8539C55.0856 19.8568 55.085 19.8613 55.0835 19.8677C55.0807 19.8803 55.0747 19.8987 55.0656 19.923C55.0476 19.9715 55.0178 20.0424 54.9778 20.134C54.9344 20.2334 54.879 20.357 54.8138 20.5028Z" fill="url(#paint4_linear_1687_280)" stroke="#828282" stroke-width="0.00998722"/>
<path d="M53.799 23.8512C53.9041 23.2233 54.0389 22.5788 54.204 21.921C54.3434 21.591 54.4736 21.2926 54.5891 21.032C54.3511 21.7231 54.0612 22.6877 53.799 23.8512Z" fill="url(#paint5_linear_1687_280)" stroke="#828282" stroke-width="0.00998722"/>
<path d="M54.8138 20.5028C54.7732 20.5934 54.7288 20.6926 54.681 20.7999C54.7849 20.5109 54.8757 20.2825 54.9457 20.1221C54.9855 20.0309 55.0185 19.9618 55.0433 19.9161C55.0558 19.8932 55.066 19.8763 55.074 19.8655C55.078 19.8601 55.0813 19.8564 55.0838 19.8543C55.0851 19.8532 55.0859 19.8527 55.0865 19.8525C55.0866 19.8524 55.0867 19.8524 55.0867 19.8524C55.0867 19.8524 55.0865 19.8524 55.0861 19.8523L55.0877 19.8476L55.0861 19.8523C55.0855 19.8521 55.0852 19.8517 55.0851 19.8516C55.0851 19.8516 55.0851 19.8516 55.0851 19.8516C55.0852 19.8518 55.0854 19.8525 55.0855 19.8539C55.0856 19.8568 55.085 19.8613 55.0835 19.8677C55.0807 19.8803 55.0747 19.8987 55.0656 19.923C55.0476 19.9715 55.0178 20.0424 54.9778 20.134C54.9344 20.2334 54.879 20.357 54.8138 20.5028Z" fill="url(#paint6_linear_1687_280)" stroke="#828282" stroke-width="0.00998722"/>
<defs>
<linearGradient id="paint0_linear_1687_280" x1="24.4643" y1="17.4899" x2="24.4643" y2="19.8477" gradientUnits="userSpaceOnUse">
<stop stop-color="#29D8FF"/>
<stop offset="1" stop-color="#001E94"/>
</linearGradient>
<linearGradient id="paint1_linear_1687_280" x1="38.8283" y1="0" x2="38.8283" y2="36.9797" gradientUnits="userSpaceOnUse">
<stop stop-color="#29D8FF"/>
<stop offset="1" stop-color="#001E94"/>
</linearGradient>
<linearGradient id="paint2_linear_1687_280" x1="59.5578" y1="21.9192" x2="59.5578" y2="39.9999" gradientUnits="userSpaceOnUse">
<stop stop-color="#29D8FF"/>
<stop offset="1" stop-color="#001E94"/>
</linearGradient>
<linearGradient id="paint3_linear_1687_280" x1="54.1994" y1="20.9208" x2="54.1994" y2="24.0241" gradientUnits="userSpaceOnUse">
<stop stop-color="#29D8FF"/>
<stop offset="1" stop-color="#001E94"/>
</linearGradient>
<linearGradient id="paint4_linear_1687_280" x1="54.8616" y1="19.8474" x2="54.8616" y2="20.9207" gradientUnits="userSpaceOnUse">
<stop stop-color="#29D8FF"/>
<stop offset="1" stop-color="#001E94"/>
</linearGradient>
<linearGradient id="paint5_linear_1687_280" x1="54.1994" y1="20.9208" x2="54.1994" y2="24.0241" gradientUnits="userSpaceOnUse">
<stop stop-color="#29D8FF"/>
<stop offset="1" stop-color="#001E94"/>
</linearGradient>
<linearGradient id="paint6_linear_1687_280" x1="54.8616" y1="19.8474" x2="54.8616" y2="20.9207" gradientUnits="userSpaceOnUse">
<stop stop-color="#29D8FF"/>
<stop offset="1" stop-color="#001E94"/>
</linearGradient>
</defs>
</svg>
