<?xml version="1.0" standalone="no"?>
<!DOCTYPE svg PUBLIC "-//W3C//DTD SVG 20010904//EN"
 "http://www.w3.org/TR/2001/REC-SVG-20010904/DTD/svg10.dtd">
<svg version="1.0" xmlns="http://www.w3.org/2000/svg"
 width="1248.000000pt" height="1248.000000pt" viewBox="0 0 1248.000000 1248.000000"
 preserveAspectRatio="xMidYMid meet">
<metadata>
Created by potrace 1.14, written by Peter Selinger 2001-2017
</metadata>
<g transform="translate(0.000000,1248.000000) scale(0.100000,-0.100000)"
fill="#000000" stroke="none">
<path d="M6128 9435 c-2 -2 -73 -7 -158 -10 -85 -4 -177 -8 -205 -10 -27 -2
-99 -6 -160 -10 -157 -10 -182 -11 -255 -19 -36 -4 -90 -9 -120 -11 -30 -2
-80 -7 -110 -10 -79 -9 -117 -13 -190 -20 -36 -3 -76 -8 -90 -10 -14 -2 -50
-7 -80 -10 -30 -3 -67 -8 -81 -10 -33 -6 -90 -13 -158 -21 -68 -7 -88 -11
-101 -19 -6 -3 -10 -1 -10 5 0 6 -5 8 -10 5 -13 -8 -46 -13 -175 -30 -48 -6
-97 -13 -140 -20 -11 -1 -42 -6 -70 -10 -27 -4 -59 -9 -70 -11 -11 -3 -36 -6
-55 -9 -51 -5 -314 -54 -390 -72 -36 -8 -76 -17 -90 -19 -14 -3 -33 -7 -42
-10 -9 -3 -25 -7 -35 -9 -10 -2 -36 -8 -58 -14 -22 -5 -67 -16 -100 -25 -33
-8 -79 -22 -102 -30 -24 -8 -43 -13 -43 -10 0 2 -9 0 -21 -6 -11 -6 -28 -13
-37 -15 -21 -5 -230 -74 -257 -86 -11 -4 -99 -38 -195 -75 -599 -229 -1065
-463 -1480 -743 -89 -60 -224 -160 -279 -206 -203 -170 -334 -305 -455 -470
-45 -61 -87 -121 -95 -135 -53 -91 -80 -141 -82 -148 -1 -4 -9 -25 -19 -47
-24 -54 -59 -149 -64 -177 -2 -13 -9 -41 -14 -63 -21 -81 -26 -133 -26 -275 0
-152 5 -202 30 -310 9 -36 17 -69 18 -75 1 -5 5 -16 9 -22 5 -7 6 -13 3 -13
-3 0 6 -30 20 -67 48 -128 75 -185 126 -271 21 -34 38 -66 38 -71 0 -5 4 -11
8 -13 5 -1 22 -23 39 -48 37 -54 153 -175 208 -216 107 -80 202 -114 307 -110
81 4 106 9 140 27 13 7 23 11 23 10 0 -10 144 66 190 101 6 4 37 29 70 55 33
26 66 52 73 58 24 18 356 351 386 386 15 19 49 57 75 85 55 61 133 150 191
219 23 28 56 66 73 86 18 19 48 55 68 80 67 81 111 133 130 154 10 11 33 38
50 60 l32 40 -7 -35 c-4 -19 -9 -46 -12 -60 -3 -14 -7 -33 -10 -42 -3 -10 -7
-30 -10 -45 -3 -16 -12 -55 -21 -88 -8 -33 -17 -71 -20 -85 -2 -14 -11 -54
-19 -90 -8 -36 -17 -76 -19 -90 -2 -14 -11 -59 -20 -100 -9 -41 -18 -84 -19
-95 -15 -103 -19 -133 -23 -150 -9 -46 -11 -264 -1 -315 27 -150 109 -230 263
-255 159 -26 265 2 463 118 93 54 322 224 322 238 0 5 5 9 11 9 6 0 23 12 39
28 16 15 54 50 86 77 67 58 416 404 489 486 28 30 77 94 110 142 33 47 62 86
66 87 3 0 5 -158 5 -351 -1 -193 2 -353 6 -355 10 -7 159 -7 165 0 8 7 8 84 0
92 -3 3 -2 16 3 28 4 13 4 29 0 36 -5 8 -5 21 0 30 5 9 5 22 0 30 -5 8 -5 21
0 30 5 9 5 21 1 28 -3 6 -4 35 -1 64 l5 53 285 1 c157 1 287 2 290 3 3 2 15 4
28 7 70 13 153 81 184 152 24 53 27 160 7 207 -7 17 -12 33 -11 36 4 21 -95
100 -148 118 -39 14 -164 24 -275 22 -27 0 -58 -1 -67 -1 -76 0 -100 0 -110 1
-7 1 -35 1 -63 0 -27 0 -58 -1 -67 -1 -76 0 -100 0 -110 1 -40 3 -118 -5 -119
-13 -1 -4 -2 -16 -3 -26 -2 -25 -162 -183 -221 -217 -127 -74 -262 -128 -350
-140 -11 -2 -20 -4 -20 -5 0 -10 -144 -23 -260 -23 -134 -1 -180 6 -240 34
-212 100 -155 427 172 976 56 95 135 220 151 238 5 6 17 24 27 40 58 91 179
255 188 255 6 0 7 3 4 6 -4 4 5 20 18 36 19 22 23 36 18 56 -3 15 -9 29 -12
32 -6 4 -32 56 -36 70 -2 6 -125 261 -176 362 -21 43 -35 79 -31 82 15 8 498
158 555 172 40 9 60 15 132 34 22 6 56 15 75 20 19 5 71 18 115 30 44 12 88
24 98 26 10 2 27 6 37 9 10 3 27 8 37 10 15 3 114 25 178 40 80 18 298 65 326
70 19 3 47 8 63 11 16 3 32 7 35 9 4 2 25 6 47 9 22 4 49 8 61 10 21 5 67 12
131 22 20 3 55 9 77 14 22 5 63 12 90 15 28 4 61 8 75 11 14 3 41 7 60 9 19 3
53 8 75 11 22 3 67 9 100 14 33 4 67 8 75 8 8 0 24 2 35 5 11 3 45 7 75 11
219 23 308 32 420 41 41 3 95 8 120 10 25 3 90 7 145 10 55 4 129 8 165 10
361 22 1101 17 1470 -10 36 -2 103 -7 150 -10 47 -3 108 -8 135 -11 28 -3 77
-7 110 -9 33 -2 76 -6 95 -9 19 -3 62 -8 95 -11 33 -3 78 -8 100 -10 22 -3 63
-8 90 -11 28 -3 61 -7 75 -9 14 -2 48 -7 75 -10 28 -3 64 -7 80 -10 17 -3 46
-7 65 -10 19 -2 46 -7 60 -9 14 -3 45 -7 70 -10 43 -5 63 -9 128 -21 15 -3 45
-8 67 -10 40 -5 57 -8 105 -19 22 -5 62 -12 125 -21 11 -2 20 -4 20 -5 0 -1 9
-3 20 -5 11 -1 34 -6 50 -9 17 -4 39 -8 50 -10 57 -10 94 -17 135 -26 25 -5
57 -12 73 -15 30 -6 59 -12 97 -21 14 -3 31 -6 38 -6 6 -1 12 -5 12 -10 0 -8
-104 -144 -121 -158 -5 -5 -264 -351 -295 -395 -8 -11 -42 -60 -77 -110 -88
-126 -179 -264 -193 -295 -4 -8 -11 -17 -14 -20 -7 -5 -220 -358 -220 -364 0
-2 -24 -46 -53 -97 -66 -117 -240 -470 -240 -486 0 -7 -4 -13 -9 -13 -4 0 -8
-6 -8 -12 0 -7 -12 -35 -25 -63 -14 -27 -25 -54 -25 -60 0 -5 -6 -22 -14 -36
-27 -52 -143 -370 -172 -474 -2 -5 -15 -48 -29 -95 -14 -47 -28 -96 -30 -110
-3 -14 -17 -54 -31 -90 -14 -36 -29 -74 -34 -85 -4 -11 -19 -49 -34 -85 -56
-141 -128 -349 -126 -365 0 -3 -7 -19 -15 -35 -8 -16 -15 -31 -14 -32 1 -2 -6
-30 -16 -63 -9 -33 -19 -68 -21 -79 -2 -10 -10 -42 -18 -70 -16 -56 -62 -268
-71 -331 -6 -38 -9 -57 -20 -142 -13 -100 -18 -189 -18 -308 1 -129 5 -173 28
-312 10 -67 35 -154 47 -168 4 -5 8 -16 8 -25 0 -9 14 -44 30 -78 17 -34 30
-67 30 -72 0 -6 3 -10 8 -10 4 0 16 -17 27 -37 24 -46 107 -147 154 -188 19
-16 40 -35 46 -41 33 -33 179 -122 268 -163 82 -38 192 -79 262 -96 6 -1 13
-3 17 -5 4 -1 34 -8 65 -15 55 -13 93 -20 173 -32 54 -9 369 -9 425 0 49 7 75
12 125 23 14 3 36 7 50 10 45 9 114 31 178 57 34 14 62 24 62 22 0 -18 352
187 400 231 30 29 63 54 70 54 5 0 10 7 14 15 4 12 -1 11 -22 -4 -51 -36 -117
-75 -131 -77 -8 -2 -17 -8 -21 -14 -4 -7 -11 -12 -16 -12 -5 1 -22 -6 -39 -13
-64 -29 -155 -63 -155 -58 0 3 -6 1 -12 -4 -12 -9 -71 -26 -136 -38 -13 -2
-31 -6 -40 -9 -65 -19 -307 -26 -412 -13 -105 13 -144 22 -235 49 -38 12 -72
22 -75 23 -59 13 -261 117 -354 183 -113 79 -269 238 -345 351 -129 195 -199
384 -245 666 -18 107 -22 285 -11 430 11 144 21 234 30 295 2 14 6 39 9 55 23
153 24 156 30 163 3 2 2 -33 -1 -79 -9 -109 -8 -374 1 -464 11 -110 12 -118
32 -220 6 -32 51 -185 69 -235 54 -152 169 -334 286 -451 63 -64 138 -125 255
-207 81 -57 417 -205 441 -194 2 1 21 -5 43 -13 22 -8 43 -14 45 -14 3 0 18
-2 33 -5 15 -3 45 -8 67 -11 22 -3 54 -8 70 -11 50 -9 269 -12 326 -4 135 19
148 22 229 45 30 9 62 17 70 20 8 2 29 9 45 16 17 6 35 13 40 14 36 8 268 128
293 153 7 6 17 12 21 12 4 0 46 28 93 63 212 154 405 349 631 637 52 67 251
358 283 415 6 11 33 58 61 105 50 84 78 134 136 240 47 87 171 336 216 435 23
50 46 98 52 108 6 11 9 20 7 22 -2 2 -30 -37 -63 -87 -33 -49 -67 -97 -75
-106 -9 -9 -22 -26 -30 -38 -36 -51 -188 -222 -267 -299 -204 -199 -373 -336
-602 -487 -47 -31 -90 -60 -96 -65 -5 -4 -21 -14 -35 -21 -14 -7 -52 -28 -85
-48 -158 -93 -433 -210 -566 -240 -137 -32 -319 -40 -419 -20 -144 29 -299 85
-385 139 -133 83 -218 160 -282 255 -30 46 -79 135 -88 162 -3 10 -17 46 -25
65 -11 26 -35 121 -45 180 -28 156 -28 491 0 645 3 14 7 45 11 70 3 25 7 52 9
60 3 8 7 33 10 55 4 22 15 76 26 120 11 44 22 91 24 105 3 14 14 57 25 95 12
39 27 93 35 120 11 40 83 266 99 310 2 6 4 13 5 18 0 4 8 21 16 37 8 16 15 31
14 32 0 2 4 16 10 31 6 16 11 30 11 32 0 5 127 312 149 360 11 22 37 81 60
130 65 145 202 407 261 500 11 17 27 44 36 60 51 91 280 420 375 539 8 10 25
31 124 151 22 27 61 71 87 99 26 28 44 54 40 57 -6 6 -94 33 -137 44 -5 1 -17
5 -25 8 -18 7 -125 36 -160 43 -14 2 -32 7 -40 11 -8 3 -23 8 -33 10 -10 1
-58 14 -107 28 -49 14 -98 25 -109 25 -11 0 -23 5 -26 10 -4 6 -10 8 -15 5 -5
-3 -18 -2 -27 4 -10 5 -34 12 -53 15 -19 4 -39 8 -45 10 -5 1 -26 6 -45 10
-19 4 -71 16 -115 26 -44 11 -91 21 -105 24 -14 3 -59 12 -100 21 -41 9 -84
19 -95 21 -66 13 -123 24 -145 28 -14 3 -50 10 -80 16 -30 6 -68 13 -85 15
-16 3 -41 7 -55 10 -27 5 -135 24 -185 31 -16 3 -52 9 -80 14 -27 6 -70 13
-95 16 -25 3 -54 7 -65 9 -68 10 -258 36 -291 40 -21 2 -39 4 -39 5 0 1 -13 3
-30 4 -16 2 -59 7 -95 11 -36 4 -78 9 -95 11 -16 1 -52 5 -80 8 -27 3 -79 8
-115 11 -36 3 -81 7 -100 10 -19 3 -75 8 -125 11 -49 3 -108 7 -130 9 -22 2
-96 6 -165 10 -69 4 -156 9 -195 11 -83 6 -1162 13 -1167 9z m-3145 -1152 c-3
-10 -9 -22 -13 -28 -4 -5 -21 -35 -37 -65 -68 -124 -97 -176 -180 -312 -60
-99 -184 -292 -200 -313 -5 -5 -35 -48 -68 -95 -70 -100 -67 -95 -102 -140
-16 -19 -47 -60 -70 -90 -22 -30 -49 -65 -59 -76 -11 -12 -32 -39 -49 -60 -16
-21 -46 -57 -65 -79 -19 -22 -48 -55 -65 -74 -260 -301 -614 -609 -870 -758
-82 -47 -197 -103 -225 -108 -11 -2 -25 -7 -30 -10 -19 -12 -65 -19 -126 -19
-52 0 -67 4 -100 29 -64 48 -96 87 -127 155 -25 54 -30 79 -31 145 -1 98 7
143 43 249 37 108 101 232 188 361 73 110 198 237 350 356 130 102 145 114
157 118 6 2 13 7 16 10 8 10 209 141 216 141 4 0 22 11 40 25 18 14 35 25 38
25 2 0 44 23 93 51 92 54 372 198 458 237 28 12 57 27 65 32 8 5 85 39 170 75
85 37 169 73 185 80 17 8 89 37 160 65 72 28 150 59 175 70 58 24 71 24 63 3z
m1767 -1789 c32 -18 37 -29 44 -86 5 -42 -27 -85 -72 -98 -31 -8 -279 -14
-427 -11 -11 1 -47 1 -80 0 -33 0 -57 3 -53 6 3 4 2 19 -2 35 -4 16 -6 31 -3
34 8 8 9 76 1 76 -5 0 -3 22 7 55 1 6 102 10 277 9 253 0 277 -2 308 -20z
m3830 -1031 c-11 -17 -11 -17 -6 0 3 10 6 24 7 30 0 9 2 9 5 0 3 -7 0 -20 -6
-30z"/>
<path d="M5907 6684 c-3 -3 -147 -6 -319 -5 l-313 0 0 -469 0 -470 87 0 88 0
0 198 0 197 278 1 c298 1 333 4 390 34 48 25 62 38 94 80 58 78 68 203 24 289
-39 75 -135 129 -242 137 -37 2 -70 7 -74 9 -4 2 -10 2 -13 -1z m109 -178 c59
-13 87 -104 50 -161 -22 -34 -72 -44 -216 -45 -69 0 -187 0 -262 0 l-138 -1 0
105 c0 61 4 106 10 108 20 6 526 1 556 -6z"/>
<path d="M8206 6683 c-3 -4 -26 -6 -50 -4 -27 1 -49 -4 -57 -12 -8 -8 -51 -54
-96 -103 -45 -49 -104 -114 -132 -144 l-51 -55 -58 61 c-31 34 -97 105 -146
157 l-89 97 -113 -1 -113 -1 39 -42 c21 -22 52 -57 70 -76 18 -19 82 -88 144
-154 61 -65 127 -136 146 -157 l35 -39 0 -235 c-1 -219 0 -235 17 -236 75 -2
137 0 145 4 5 3 8 110 8 238 l0 233 50 53 c28 28 91 96 142 150 50 54 121 129
157 168 36 38 66 73 66 78 0 4 5 5 10 2 6 -3 10 -2 10 4 0 5 -25 10 -55 10
-30 0 -59 2 -63 5 -5 3 -12 2 -16 -1z"/>
<path d="M6565 6214 c0 -254 3 -465 6 -468 8 -8 829 -9 837 -2 9 10 9 147 -1
153 -4 3 -156 5 -338 5 -328 1 -329 1 -330 22 0 11 -1 186 -1 388 l0 368 -87
-2 -86 -1 0 -463z"/>
<path d="M693 4286 c-5 -7 -8 -826 -4 -918 1 -16 12 -18 81 -17 44 0 82 5 85
10 4 5 6 139 6 299 1 159 4 290 8 290 4 0 34 -39 67 -88 32 -48 104 -152 158
-231 90 -129 101 -141 113 -124 7 10 16 23 20 28 5 6 22 31 38 57 17 27 33 48
38 48 4 0 7 4 7 9 0 5 34 58 75 118 42 59 81 117 88 127 6 10 21 30 33 44 l20
25 -1 -289 c0 -159 1 -297 3 -306 3 -14 17 -17 88 -16 l84 0 0 469 0 469 -27
1 c-48 3 -115 1 -117 -3 -4 -5 -89 -123 -104 -145 -7 -10 -39 -56 -72 -103
-33 -47 -65 -93 -72 -104 -7 -10 -27 -37 -43 -60 -17 -22 -38 -53 -48 -68 -19
-30 -38 -29 -56 5 -14 28 -34 61 -42 67 -5 5 -192 272 -242 347 -15 22 -34 47
-42 53 -18 15 -134 20 -142 6z"/>
<path d="M2428 4292 c-30 -4 -14 24 -257 -457 -64 -126 -118 -232 -121 -235
-7 -7 -120 -236 -120 -243 0 -10 160 -5 166 5 3 4 9 6 13 4 4 -3 31 42 60 100
29 57 58 107 63 111 13 7 423 10 445 2 8 -3 41 -54 72 -115 l56 -109 85 -1
c47 -1 88 0 93 3 4 2 -43 102 -105 221 -61 119 -165 323 -231 452 -66 129
-125 242 -131 250 -11 15 -35 18 -88 12z m106 -410 l74 -148 -146 1 c-89 0
-147 4 -147 10 0 6 30 66 65 135 36 69 66 131 68 138 2 6 5 12 7 12 2 0 37
-67 79 -148z"/>
<path d="M4535 4289 c-2 -3 -4 -215 -4 -471 l0 -466 88 0 88 1 0 469 c0 257
-3 469 -6 469 -21 5 -163 3 -166 -2z"/>
<path d="M5126 4291 c-2 -3 -3 -32 -2 -63 1 -32 -3 -58 -8 -58 -5 0 -5 -5 1
-12 10 -16 10 -218 0 -236 -5 -6 -5 -12 0 -12 4 0 8 -49 8 -110 0 -60 -4 -110
-9 -110 -5 0 -4 -6 1 -12 5 -7 7 -44 6 -83 -3 -82 0 -207 6 -237 2 -14 158 -9
163 5 2 6 3 141 3 300 -1 158 1 287 5 287 3 0 31 -28 61 -62 30 -34 68 -75 84
-93 26 -27 99 -107 200 -220 195 -217 203 -225 246 -225 21 0 41 6 46 13 4 6
8 218 8 470 l0 457 -27 1 c-16 0 -48 1 -73 1 -25 0 -51 -1 -58 -1 -11 -1 -14
-56 -13 -301 1 -165 -2 -300 -5 -300 -3 0 -18 15 -34 33 -16 17 -49 55 -74 82
-112 123 -222 245 -271 300 -30 33 -71 78 -91 100 -20 22 -45 50 -56 62 -13
17 -31 24 -66 26 -26 2 -49 1 -51 -2z"/>
<path d="M6359 4295 c-5 0 -4 -928 1 -935 3 -5 200 -8 460 -7 l455 2 0 43 c0
23 3 42 8 42 4 0 5 6 0 13 -7 12 -8 16 -11 47 -2 13 -49 15 -372 15 -323 0
-370 2 -371 15 0 18 0 198 0 223 1 16 19 17 234 17 l232 0 -1 76 c-1 42 -6 79
-12 83 -5 3 -110 6 -231 5 -196 -1 -221 1 -222 15 -3 68 0 161 5 169 4 6 121
10 318 10 172 0 330 1 350 1 l37 1 -1 80 c0 51 -5 80 -12 81 -7 0 -754 4 -867
4z"/>
<path d="M3223 3823 l2 -468 85 0 85 0 0 195 0 195 186 2 186 2 34 -52 c99
-155 184 -286 202 -314 l21 -31 93 0 c51 0 93 3 93 6 0 2 -26 45 -57 96 -85
133 -102 160 -113 173 -5 7 -17 28 -27 47 -9 20 -20 36 -25 36 -4 0 -8 6 -8
14 0 8 -6 16 -12 19 -7 3 8 14 34 25 58 26 131 97 153 149 9 21 17 67 17 103
2 117 -54 200 -165 245 -56 23 -64 24 -421 25 l-364 1 1 -468z"/>
</g>
</svg>
